<svg xmlns="http://www.w3.org/2000/svg" xmlns:xlink="http://www.w3.org/1999/xlink" width="500" zoomAndPan="magnify" viewBox="0 0 375 225" height="300" preserveAspectRatio="xMidYMid meet" version="1.0"><defs><g/></defs><g fill="#0a4876" fill-opacity="1"><g transform="translate(1.196454, 179.190319)"><g><path d="M 162.09375 0 L 146.96875 -27.59375 L 39.296875 -27.59375 L 24.171875 0 L 1.21875 0 L 81.78125 -146.234375 L 81.53125 -146.46875 L 104.734375 -146.46875 L 104.734375 -146.234375 L 185.046875 0 Z M 50.046875 -47.109375 L 136.21875 -47.109375 L 93.25 -125.484375 Z M 50.046875 -47.109375 "/></g></g></g><g fill="#808080" fill-opacity="1"><g transform="translate(187.478453, 179.190319)"><g><path d="M 162.09375 0 L 146.96875 -27.59375 L 39.296875 -27.59375 L 24.171875 0 L 1.21875 0 L 81.78125 -146.234375 L 81.53125 -146.46875 L 104.734375 -146.46875 L 104.734375 -146.234375 L 185.046875 0 Z M 50.046875 -47.109375 L 136.21875 -47.109375 L 93.25 -125.484375 Z M 50.046875 -47.109375 "/></g></g></g></svg>