<svg xmlns="http://www.w3.org/2000/svg" xmlns:xlink="http://www.w3.org/1999/xlink" width="300" zoomAndPan="magnify" viewBox="0 0 224.87999 225" height="300" preserveAspectRatio="xMidYMid meet" version="1.0"><defs><clipPath id="ee54d9ae00"><path d="M 32 0.0585938 L 193 0.0585938 L 193 224.9375 L 32 224.9375 Z M 32 0.0585938 " clip-rule="nonzero"/></clipPath></defs><g clip-path="url(#ee54d9ae00)"><path fill="#ffffff" d="M 184.695312 135.527344 L 147.488281 112.355469 C 147.472656 112.347656 147.460938 112.339844 147.445312 112.332031 C 144.617188 110.628906 141.957031 109.222656 137.996094 109.222656 L 86.882812 109.222656 C 82.921875 109.222656 80.261719 110.628906 77.433594 112.332031 C 77.421875 112.339844 77.40625 112.347656 77.390625 112.355469 L 40.183594 135.527344 C 33.753906 139.53125 30.785156 147.417969 32.96875 154.707031 L 47.820312 204.273438 C 48.945312 208.039062 51.484375 211.144531 54.964844 213.019531 C 58.441406 214.894531 62.433594 215.304688 66.199219 214.179688 C 68.023438 213.632812 69.664062 212.761719 71.074219 211.648438 C 72.453125 219.125 79.015625 224.804688 86.882812 224.804688 L 137.996094 224.804688 C 146.035156 224.804688 152.714844 218.871094 153.886719 211.15625 C 155.132812 212.222656 156.566406 213.171875 158.171875 213.976562 C 161.308594 215.542969 164.925781 215.589844 168.355469 214.105469 C 172.4375 212.339844 175.773438 208.574219 177.0625 204.273438 L 191.910156 154.707031 C 194.09375 147.417969 191.125 139.53125 184.695312 135.527344 Z M 70.808594 178.136719 L 64.214844 156.117188 L 70.808594 151.8125 Z M 185.8125 152.878906 L 170.964844 202.445312 C 170.210938 204.957031 168.195312 207.242188 165.832031 208.261719 C 164.644531 208.777344 162.84375 209.195312 161.019531 208.28125 C 157.273438 206.410156 153.417969 202.496094 154.875 197.625 L 167.445312 155.667969 C 167.851562 154.316406 167.316406 152.859375 166.136719 152.089844 L 152.625 143.269531 C 151.648438 142.628906 150.398438 142.578125 149.371094 143.136719 C 148.34375 143.691406 147.703125 144.765625 147.703125 145.933594 L 147.703125 208.734375 C 147.703125 214.085938 143.351562 218.441406 137.996094 218.441406 L 86.882812 218.441406 C 81.53125 218.441406 77.175781 214.085938 77.175781 208.734375 L 77.175781 145.933594 C 77.175781 144.765625 76.535156 143.691406 75.507812 143.136719 C 75.035156 142.878906 74.515625 142.75 73.992188 142.75 C 73.386719 142.75 72.78125 142.925781 72.253906 143.269531 L 58.742188 152.089844 C 57.5625 152.859375 57.027344 154.316406 57.433594 155.667969 L 70.003906 197.625 C 71.332031 202.0625 68.804688 206.75 64.371094 208.082031 C 62.234375 208.71875 59.964844 208.484375 57.980469 207.414062 C 56 206.347656 54.554688 204.582031 53.914062 202.445312 L 39.066406 152.878906 C 37.703125 148.335938 39.546875 143.421875 43.550781 140.929688 L 80.734375 117.773438 C 83.207031 116.289062 84.621094 115.585938 86.882812 115.585938 L 137.996094 115.585938 C 140.257812 115.585938 141.675781 116.289062 144.144531 117.773438 L 181.332031 140.929688 C 185.332031 143.421875 187.175781 148.335938 185.8125 152.878906 Z M 154.070312 178.136719 L 154.070312 151.8125 L 160.664062 156.121094 Z M 112.441406 102.445312 C 127.015625 102.445312 138.875 90.585938 138.875 76.011719 C 138.875 61.433594 127.015625 49.574219 112.441406 49.574219 C 97.863281 49.574219 86.003906 61.433594 86.003906 76.011719 C 86.003906 90.585938 97.863281 102.445312 112.441406 102.445312 Z M 112.441406 55.941406 C 123.507812 55.941406 132.511719 64.945312 132.511719 76.011719 C 132.511719 87.078125 123.507812 96.082031 112.441406 96.082031 C 101.375 96.082031 92.371094 87.078125 92.371094 76.011719 C 92.371094 64.945312 101.375 55.941406 112.441406 55.941406 Z M 109.257812 28.289062 L 109.257812 3.378906 C 109.257812 1.621094 110.683594 0.195312 112.441406 0.195312 C 114.199219 0.195312 115.621094 1.621094 115.621094 3.378906 L 115.621094 28.289062 C 115.621094 30.046875 114.199219 31.472656 112.441406 31.472656 C 110.683594 31.472656 109.257812 30.046875 109.257812 28.289062 Z M 143.933594 44.515625 C 142.691406 43.273438 142.691406 41.257812 143.933594 40.015625 L 161.546875 22.402344 C 162.792969 21.160156 164.808594 21.160156 166.050781 22.402344 C 167.292969 23.644531 167.292969 25.660156 166.050781 26.902344 L 148.433594 44.515625 C 147.8125 45.136719 147 45.449219 146.183594 45.449219 C 145.371094 45.449219 144.554688 45.136719 143.933594 44.515625 Z M 160.160156 72.828125 L 185.074219 72.828125 C 186.832031 72.828125 188.253906 74.253906 188.253906 76.011719 C 188.253906 77.769531 186.832031 79.191406 185.074219 79.191406 L 160.160156 79.191406 C 158.402344 79.191406 156.980469 77.769531 156.980469 76.011719 C 156.980469 74.253906 158.402344 72.828125 160.160156 72.828125 Z M 36.625 76.011719 C 36.625 74.253906 38.050781 72.828125 39.808594 72.828125 L 64.71875 72.828125 C 66.476562 72.828125 67.902344 74.253906 67.902344 76.011719 C 67.902344 77.769531 66.476562 79.191406 64.71875 79.191406 L 39.808594 79.191406 C 38.050781 79.191406 36.625 77.769531 36.625 76.011719 Z M 58.832031 26.902344 C 57.585938 25.660156 57.585938 23.644531 58.832031 22.402344 C 60.074219 21.15625 62.089844 21.15625 63.332031 22.402344 L 80.945312 40.015625 C 82.1875 41.257812 82.1875 43.273438 80.945312 44.515625 C 80.324219 45.136719 79.507812 45.449219 78.695312 45.449219 C 77.882812 45.449219 77.066406 45.136719 76.445312 44.515625 Z M 137.316406 144.652344 L 121.285156 143.675781 L 115.402344 128.730469 C 114.921875 127.515625 113.746094 126.714844 112.441406 126.714844 C 111.132812 126.714844 109.957031 127.515625 109.480469 128.730469 L 103.59375 143.675781 L 87.5625 144.652344 C 86.257812 144.734375 85.132812 145.601562 84.730469 146.847656 C 84.328125 148.089844 84.722656 149.453125 85.734375 150.285156 L 98.125 160.5 L 94.105469 176.050781 C 93.777344 177.316406 94.257812 178.652344 95.316406 179.421875 C 96.371094 180.1875 97.792969 180.230469 98.894531 179.53125 L 112.441406 170.902344 L 125.984375 179.53125 C 126.507812 179.863281 127.101562 180.03125 127.695312 180.03125 C 128.351562 180.03125 129.007812 179.824219 129.566406 179.421875 C 130.625 178.652344 131.101562 177.316406 130.777344 176.050781 L 126.753906 160.5 L 139.148438 150.285156 C 140.15625 149.453125 140.554688 148.089844 140.148438 146.847656 C 139.746094 145.605469 138.621094 144.734375 137.316406 144.652344 Z M 121.140625 156.878906 C 120.183594 157.667969 119.773438 158.933594 120.082031 160.132812 L 122.589844 169.820312 L 114.152344 164.441406 C 113.628906 164.109375 113.035156 163.945312 112.441406 163.945312 C 111.84375 163.945312 111.25 164.109375 110.730469 164.441406 L 102.289062 169.820312 L 104.796875 160.132812 C 105.105469 158.933594 104.695312 157.664062 103.742188 156.878906 L 96.019531 150.515625 L 106.007812 149.90625 C 107.242188 149.828125 108.320312 149.046875 108.773438 147.894531 L 112.441406 138.585938 L 116.105469 147.894531 C 116.558594 149.046875 117.640625 149.832031 118.875 149.90625 L 128.863281 150.515625 Z M 121.140625 156.878906 " fill-opacity="1" fill-rule="nonzero"/></g><path stroke-linecap="butt" transform="matrix(0.748936, 0.0315525, -0.0315525, 0.748936, 83.259653, 111.002247)" fill="none" stroke-linejoin="miter" d="M -0.0016532 1.999912 L 37.833377 2.001947 " stroke="#ffffff" stroke-width="4" stroke-opacity="1" stroke-miterlimit="4"/></svg>