<svg xmlns="http://www.w3.org/2000/svg" xmlns:xlink="http://www.w3.org/1999/xlink" width="300" zoomAndPan="magnify" viewBox="0 0 224.87999 225" height="300" preserveAspectRatio="xMidYMid meet" version="1.0"><defs><clipPath id="3748fd15f9"><path d="M 0 71 L 224.761719 71 L 224.761719 218.195312 L 0 218.195312 Z M 0 71 " clip-rule="nonzero"/></clipPath></defs><path fill="#ffffff" d="M 73.667969 71.933594 C 74.695312 71.933594 75.71875 71.886719 76.738281 71.785156 C 77.761719 71.6875 78.773438 71.535156 79.78125 71.335938 C 80.789062 71.136719 81.785156 70.890625 82.765625 70.59375 C 83.75 70.296875 84.714844 69.949219 85.664062 69.558594 C 86.609375 69.167969 87.539062 68.730469 88.445312 68.246094 C 89.347656 67.761719 90.230469 67.234375 91.082031 66.664062 C 91.9375 66.097656 92.761719 65.484375 93.554688 64.835938 C 94.347656 64.183594 95.109375 63.496094 95.832031 62.769531 C 96.558594 62.046875 97.25 61.285156 97.902344 60.492188 C 98.550781 59.699219 99.164062 58.878906 99.734375 58.023438 C 100.304688 57.171875 100.832031 56.292969 101.316406 55.386719 C 101.800781 54.480469 102.238281 53.554688 102.632812 52.609375 C 103.027344 51.660156 103.371094 50.695312 103.667969 49.710938 C 103.96875 48.730469 104.21875 47.734375 104.417969 46.730469 C 104.617188 45.722656 104.769531 44.707031 104.871094 43.6875 C 104.972656 42.664062 105.023438 41.640625 105.023438 40.617188 C 105.023438 39.589844 104.972656 38.566406 104.871094 37.542969 C 104.773438 36.523438 104.621094 35.507812 104.421875 34.5 C 104.222656 33.496094 103.972656 32.5 103.675781 31.519531 C 103.378906 30.535156 103.03125 29.570312 102.640625 28.621094 C 102.246094 27.675781 101.808594 26.746094 101.324219 25.84375 C 100.839844 24.9375 100.3125 24.058594 99.742188 23.203125 C 99.171875 22.351562 98.5625 21.527344 97.910156 20.734375 C 97.261719 19.941406 96.574219 19.179688 95.847656 18.453125 C 95.121094 17.730469 94.363281 17.039062 93.566406 16.390625 C 92.773438 15.738281 91.949219 15.128906 91.097656 14.558594 C 90.242188 13.988281 89.363281 13.460938 88.460938 12.976562 C 87.554688 12.492188 86.628906 12.054688 85.679688 11.660156 C 84.730469 11.269531 83.765625 10.925781 82.785156 10.625 C 81.800781 10.328125 80.804688 10.078125 79.800781 9.878906 C 78.792969 9.679688 77.777344 9.53125 76.757812 9.429688 C 75.734375 9.328125 74.710938 9.277344 73.6875 9.277344 C 72.660156 9.277344 71.636719 9.328125 70.613281 9.429688 C 69.59375 9.53125 68.578125 9.683594 67.570312 9.882812 C 66.566406 10.082031 65.570312 10.332031 64.589844 10.632812 C 63.605469 10.929688 62.640625 11.277344 61.695312 11.667969 C 60.746094 12.0625 59.820312 12.5 58.914062 12.984375 C 58.007812 13.46875 57.128906 13.996094 56.277344 14.566406 C 55.421875 15.136719 54.601562 15.75 53.808594 16.402344 C 53.015625 17.050781 52.253906 17.742188 51.53125 18.46875 C 50.804688 19.195312 50.117188 19.953125 49.464844 20.746094 C 48.816406 21.542969 48.203125 22.363281 47.636719 23.21875 C 47.066406 24.074219 46.539062 24.953125 46.054688 25.859375 C 45.574219 26.761719 45.136719 27.691406 44.742188 28.640625 C 44.351562 29.585938 44.007812 30.554688 43.710938 31.535156 C 43.410156 32.519531 43.164062 33.511719 42.964844 34.519531 C 42.765625 35.527344 42.613281 36.539062 42.515625 37.5625 C 42.414062 38.582031 42.367188 39.605469 42.367188 40.632812 C 42.367188 41.660156 42.421875 42.679688 42.523438 43.699219 C 42.625 44.71875 42.777344 45.730469 42.976562 46.738281 C 43.179688 47.742188 43.429688 48.734375 43.726562 49.714844 C 44.027344 50.695312 44.371094 51.65625 44.765625 52.605469 C 45.15625 53.550781 45.59375 54.476562 46.078125 55.378906 C 46.5625 56.28125 47.089844 57.160156 47.660156 58.011719 C 48.226562 58.863281 48.839844 59.683594 49.488281 60.476562 C 50.140625 61.269531 50.824219 62.027344 51.550781 62.75 C 52.273438 63.476562 53.035156 64.164062 53.824219 64.8125 C 54.617188 65.464844 55.4375 66.074219 56.289062 66.640625 C 57.140625 67.210938 58.019531 67.738281 58.921875 68.222656 C 59.828125 68.707031 60.75 69.144531 61.699219 69.539062 C 62.644531 69.929688 63.605469 70.277344 64.585938 70.574219 C 65.566406 70.871094 66.558594 71.121094 67.566406 71.324219 C 68.570312 71.523438 69.582031 71.675781 70.601562 71.777344 C 71.621094 71.878906 72.644531 71.933594 73.667969 71.933594 Z M 73.667969 16.097656 C 74.46875 16.097656 75.265625 16.136719 76.0625 16.214844 C 76.863281 16.296875 77.652344 16.414062 78.4375 16.570312 C 79.222656 16.726562 80 16.917969 80.765625 17.152344 C 81.53125 17.382812 82.285156 17.652344 83.027344 17.960938 C 83.765625 18.265625 84.488281 18.609375 85.195312 18.984375 C 85.902344 19.363281 86.585938 19.773438 87.253906 20.21875 C 87.917969 20.664062 88.5625 21.140625 89.179688 21.648438 C 89.800781 22.15625 90.390625 22.695312 90.957031 23.261719 C 91.523438 23.828125 92.0625 24.421875 92.570312 25.039062 C 93.078125 25.660156 93.554688 26.300781 94 26.964844 C 94.445312 27.632812 94.855469 28.320312 95.234375 29.023438 C 95.609375 29.730469 95.953125 30.453125 96.257812 31.195312 C 96.566406 31.933594 96.835938 32.6875 97.066406 33.453125 C 97.300781 34.21875 97.496094 34.996094 97.652344 35.78125 C 97.808594 36.566406 97.925781 37.359375 98.003906 38.15625 C 98.082031 38.953125 98.121094 39.75 98.121094 40.550781 C 98.121094 41.351562 98.082031 42.152344 98.003906 42.949219 C 97.925781 43.746094 97.808594 44.539062 97.652344 45.324219 C 97.496094 46.109375 97.300781 46.882812 97.066406 47.652344 C 96.835938 48.417969 96.566406 49.171875 96.257812 49.910156 C 95.953125 50.648438 95.609375 51.375 95.234375 52.078125 C 94.855469 52.785156 94.445312 53.472656 94 54.136719 C 93.554688 54.804688 93.078125 55.445312 92.570312 56.066406 C 92.0625 56.683594 91.523438 57.277344 90.957031 57.84375 C 90.390625 58.410156 89.800781 58.945312 89.179688 59.457031 C 88.5625 59.964844 87.917969 60.441406 87.253906 60.882812 C 86.585938 61.328125 85.902344 61.742188 85.195312 62.117188 C 84.488281 62.496094 83.765625 62.839844 83.027344 63.144531 C 82.285156 63.449219 81.53125 63.71875 80.765625 63.953125 C 80 64.183594 79.222656 64.378906 78.4375 64.535156 C 77.652344 64.691406 76.863281 64.808594 76.0625 64.886719 C 75.265625 64.964844 74.46875 65.003906 73.667969 65.003906 C 72.867188 65.003906 72.066406 64.964844 71.269531 64.886719 C 70.472656 64.808594 69.683594 64.691406 68.898438 64.535156 C 68.113281 64.378906 67.335938 64.183594 66.570312 63.953125 C 65.800781 63.71875 65.050781 63.449219 64.308594 63.144531 C 63.570312 62.839844 62.847656 62.496094 62.140625 62.117188 C 61.433594 61.742188 60.746094 61.328125 60.082031 60.882812 C 59.414062 60.441406 58.773438 59.964844 58.15625 59.457031 C 57.535156 58.945312 56.941406 58.410156 56.375 57.84375 C 55.808594 57.277344 55.273438 56.683594 54.765625 56.066406 C 54.257812 55.445312 53.78125 54.804688 53.335938 54.136719 C 52.890625 53.472656 52.480469 52.785156 52.101562 52.078125 C 51.722656 51.375 51.382812 50.648438 51.074219 49.910156 C 50.769531 49.171875 50.5 48.417969 50.265625 47.652344 C 50.035156 46.882812 49.839844 46.109375 49.683594 45.324219 C 49.527344 44.539062 49.410156 43.746094 49.332031 42.949219 C 49.253906 42.152344 49.214844 41.351562 49.214844 40.550781 C 49.214844 39.75 49.253906 38.953125 49.332031 38.15625 C 49.410156 37.359375 49.527344 36.566406 49.683594 35.78125 C 49.839844 34.996094 50.035156 34.21875 50.265625 33.453125 C 50.5 32.6875 50.769531 31.933594 51.074219 31.195312 C 51.382812 30.453125 51.722656 29.730469 52.101562 29.023438 C 52.480469 28.320312 52.890625 27.632812 53.335938 26.964844 C 53.78125 26.300781 54.257812 25.660156 54.765625 25.039062 C 55.273438 24.421875 55.808594 23.828125 56.375 23.261719 C 56.941406 22.695312 57.535156 22.15625 58.15625 21.648438 C 58.773438 21.140625 59.414062 20.664062 60.082031 20.21875 C 60.746094 19.773438 61.433594 19.363281 62.140625 18.984375 C 62.847656 18.609375 63.570312 18.265625 64.308594 17.960938 C 65.050781 17.652344 65.800781 17.382812 66.570312 17.152344 C 67.335938 16.917969 68.113281 16.726562 68.898438 16.570312 C 69.683594 16.414062 70.472656 16.296875 71.269531 16.214844 C 72.066406 16.136719 72.867188 16.097656 73.667969 16.097656 Z M 73.667969 16.097656 " fill-opacity="1" fill-rule="nonzero"/><path fill="#ffffff" d="M 188.652344 40.632812 C 188.65625 39.605469 188.605469 38.582031 188.503906 37.5625 C 188.40625 36.539062 188.253906 35.523438 188.054688 34.515625 C 187.855469 33.511719 187.609375 32.515625 187.308594 31.53125 C 187.011719 30.550781 186.667969 29.582031 186.277344 28.636719 C 185.882812 27.6875 185.445312 26.757812 184.960938 25.851562 C 184.476562 24.945312 183.953125 24.066406 183.382812 23.214844 C 182.8125 22.359375 182.199219 21.535156 181.550781 20.742188 C 180.898438 19.949219 180.210938 19.1875 179.484375 18.460938 C 178.757812 17.734375 178 17.046875 177.207031 16.394531 C 176.410156 15.742188 175.589844 15.132812 174.734375 14.5625 C 173.878906 13.992188 173 13.464844 172.09375 12.980469 C 171.191406 12.496094 170.261719 12.054688 169.3125 11.664062 C 168.367188 11.269531 167.398438 10.925781 166.417969 10.628906 C 165.433594 10.328125 164.441406 10.082031 163.433594 9.878906 C 162.425781 9.679688 161.410156 9.53125 160.390625 9.429688 C 159.367188 9.328125 158.34375 9.277344 157.316406 9.277344 C 156.289062 9.28125 155.265625 9.328125 154.242188 9.429688 C 153.222656 9.53125 152.207031 9.683594 151.199219 9.882812 C 150.195312 10.085938 149.199219 10.335938 148.214844 10.632812 C 147.234375 10.929688 146.269531 11.277344 145.320312 11.671875 C 144.371094 12.0625 143.445312 12.503906 142.539062 12.988281 C 141.636719 13.472656 140.753906 14 139.902344 14.570312 C 139.050781 15.140625 138.226562 15.753906 137.433594 16.40625 C 136.640625 17.058594 135.878906 17.746094 135.15625 18.472656 C 134.429688 19.199219 133.742188 19.960938 133.089844 20.753906 C 132.441406 21.550781 131.828125 22.375 131.261719 23.226562 C 130.691406 24.082031 130.164062 24.964844 129.679688 25.867188 C 129.199219 26.773438 128.761719 27.703125 128.367188 28.652344 C 127.976562 29.601562 127.632812 30.566406 127.335938 31.550781 C 127.039062 32.53125 126.792969 33.527344 126.59375 34.535156 C 126.394531 35.542969 126.242188 36.558594 126.144531 37.578125 C 126.046875 38.601562 125.996094 39.625 126 40.652344 C 126 41.679688 126.050781 42.703125 126.152344 43.726562 C 126.257812 44.746094 126.40625 45.761719 126.609375 46.765625 C 126.8125 47.773438 127.0625 48.769531 127.363281 49.75 C 127.660156 50.734375 128.007812 51.699219 128.402344 52.644531 C 128.796875 53.59375 129.238281 54.519531 129.722656 55.425781 C 130.210938 56.328125 130.738281 57.207031 131.3125 58.058594 C 131.882812 58.914062 132.496094 59.734375 133.148438 60.527344 C 133.800781 61.320312 134.492188 62.078125 135.21875 62.804688 C 135.945312 63.527344 136.707031 64.214844 137.503906 64.863281 C 138.296875 65.515625 139.121094 66.125 139.976562 66.691406 C 140.832031 67.261719 141.714844 67.785156 142.621094 68.269531 C 143.527344 68.75 144.453125 69.1875 145.402344 69.578125 C 146.355469 69.96875 147.320312 70.3125 148.304688 70.605469 C 149.285156 70.902344 150.28125 71.148438 151.289062 71.347656 C 152.296875 71.546875 153.3125 71.691406 154.335938 71.792969 C 155.355469 71.890625 156.378906 71.9375 157.40625 71.933594 C 158.429688 71.929688 159.453125 71.878906 160.46875 71.773438 C 161.488281 71.671875 162.5 71.515625 163.503906 71.316406 C 164.503906 71.113281 165.496094 70.859375 166.476562 70.5625 C 167.453125 70.261719 168.414062 69.914062 169.359375 69.523438 C 170.304688 69.128906 171.226562 68.6875 172.128906 68.203125 C 173.03125 67.722656 173.90625 67.195312 174.757812 66.625 C 175.609375 66.054688 176.429688 65.445312 177.21875 64.792969 C 178.007812 64.144531 178.765625 63.457031 179.488281 62.730469 C 180.210938 62.007812 180.898438 61.25 181.546875 60.457031 C 182.195312 59.667969 182.804688 58.84375 183.375 57.992188 C 183.941406 57.144531 184.46875 56.265625 184.949219 55.363281 C 185.433594 54.460938 185.871094 53.535156 186.261719 52.589844 C 186.652344 51.644531 187 50.683594 187.296875 49.703125 C 187.59375 48.726562 187.84375 47.734375 188.042969 46.730469 C 188.246094 45.726562 188.394531 44.714844 188.5 43.695312 C 188.601562 42.679688 188.652344 41.65625 188.652344 40.632812 Z M 132.816406 40.632812 C 132.816406 39.832031 132.855469 39.035156 132.9375 38.238281 C 133.015625 37.441406 133.132812 36.648438 133.289062 35.863281 C 133.445312 35.078125 133.636719 34.300781 133.871094 33.535156 C 134.101562 32.769531 134.371094 32.015625 134.679688 31.277344 C 134.984375 30.535156 135.328125 29.8125 135.707031 29.105469 C 136.082031 28.398438 136.496094 27.714844 136.9375 27.046875 C 137.382812 26.382812 137.859375 25.738281 138.367188 25.121094 C 138.875 24.5 139.414062 23.910156 139.980469 23.34375 C 140.546875 22.777344 141.140625 22.238281 141.757812 21.730469 C 142.378906 21.222656 143.019531 20.746094 143.6875 20.300781 C 144.351562 19.855469 145.039062 19.445312 145.742188 19.066406 C 146.449219 18.691406 147.171875 18.347656 147.914062 18.042969 C 148.652344 17.734375 149.40625 17.464844 150.171875 17.234375 C 150.9375 17 151.714844 16.804688 152.5 16.648438 C 153.285156 16.492188 154.078125 16.375 154.875 16.296875 C 155.671875 16.21875 156.46875 16.179688 157.269531 16.179688 C 158.074219 16.179688 158.871094 16.21875 159.667969 16.296875 C 160.464844 16.375 161.257812 16.492188 162.042969 16.648438 C 162.828125 16.804688 163.605469 17 164.371094 17.234375 C 165.136719 17.464844 165.890625 17.734375 166.628906 18.042969 C 167.371094 18.347656 168.09375 18.691406 168.796875 19.066406 C 169.503906 19.445312 170.191406 19.855469 170.855469 20.300781 C 171.523438 20.746094 172.164062 21.222656 172.785156 21.730469 C 173.402344 22.238281 173.996094 22.777344 174.5625 23.34375 C 175.128906 23.910156 175.667969 24.5 176.175781 25.121094 C 176.683594 25.738281 177.160156 26.382812 177.605469 27.046875 C 178.046875 27.714844 178.460938 28.398438 178.835938 29.105469 C 179.214844 29.8125 179.558594 30.535156 179.863281 31.277344 C 180.171875 32.015625 180.441406 32.769531 180.671875 33.535156 C 180.90625 34.300781 181.097656 35.078125 181.253906 35.863281 C 181.410156 36.648438 181.527344 37.441406 181.605469 38.238281 C 181.6875 39.035156 181.726562 39.832031 181.726562 40.632812 C 181.726562 41.433594 181.6875 42.234375 181.605469 43.03125 C 181.527344 43.828125 181.410156 44.617188 181.253906 45.40625 C 181.097656 46.191406 180.90625 46.964844 180.671875 47.730469 C 180.441406 48.5 180.171875 49.25 179.863281 49.992188 C 179.558594 50.730469 179.214844 51.453125 178.835938 52.160156 C 178.460938 52.867188 178.046875 53.554688 177.605469 54.21875 C 177.160156 54.886719 176.683594 55.527344 176.175781 56.148438 C 175.667969 56.765625 175.128906 57.359375 174.5625 57.925781 C 173.996094 58.492188 173.402344 59.027344 172.785156 59.535156 C 172.164062 60.042969 171.523438 60.519531 170.855469 60.964844 C 170.191406 61.410156 169.503906 61.824219 168.796875 62.199219 C 168.09375 62.578125 167.371094 62.917969 166.628906 63.226562 C 165.890625 63.53125 165.136719 63.800781 164.371094 64.035156 C 163.605469 64.265625 162.828125 64.460938 162.042969 64.617188 C 161.257812 64.773438 160.464844 64.890625 159.667969 64.96875 C 158.871094 65.046875 158.074219 65.085938 157.269531 65.085938 C 156.472656 65.085938 155.675781 65.042969 154.878906 64.960938 C 154.085938 64.882812 153.296875 64.761719 152.511719 64.605469 C 151.730469 64.445312 150.957031 64.25 150.191406 64.015625 C 149.425781 63.78125 148.675781 63.511719 147.9375 63.203125 C 147.199219 62.894531 146.480469 62.550781 145.777344 62.171875 C 145.074219 61.796875 144.386719 61.382812 143.726562 60.9375 C 143.0625 60.492188 142.421875 60.015625 141.804688 59.507812 C 141.1875 59 140.597656 58.460938 140.03125 57.894531 C 139.46875 57.332031 138.933594 56.738281 138.425781 56.121094 C 137.921875 55.5 137.445312 54.859375 137.003906 54.195312 C 136.558594 53.527344 136.152344 52.84375 135.773438 52.140625 C 135.398438 51.433594 135.058594 50.710938 134.753906 49.972656 C 134.449219 49.234375 134.179688 48.484375 133.949219 47.71875 C 133.714844 46.953125 133.523438 46.179688 133.367188 45.394531 C 133.210938 44.609375 133.09375 43.820312 133.015625 43.027344 C 132.9375 42.230469 132.898438 41.433594 132.898438 40.632812 Z M 132.816406 40.632812 " fill-opacity="1" fill-rule="nonzero"/><g clip-path="url(#3748fd15f9)"><path fill="#ffffff" d="M 199.523438 81.796875 C 196.382812 80.921875 193.195312 80.285156 189.957031 79.894531 C 168.320312 76.5625 146.683594 76.5625 125.046875 79.894531 C 122.386719 80.335938 120.011719 81.414062 117.929688 83.128906 L 117.222656 83.699219 C 116.011719 84.136719 114.988281 84.84375 114.152344 85.820312 L 112.738281 86.933594 C 110.972656 83.863281 109.804688 83.480469 108.933594 83.210938 C 108.523438 83.039062 108.125 82.839844 107.738281 82.613281 C 105.410156 81.261719 102.921875 80.355469 100.269531 79.894531 C 84.648438 77.285156 68.945312 76.558594 53.152344 77.722656 C 48.78125 70.984375 39.050781 69.570312 32.285156 72.476562 C 31.800781 72.648438 31.335938 72.855469 30.886719 73.105469 C 30.4375 73.351562 30.011719 73.636719 29.609375 73.957031 C 29.207031 74.273438 28.835938 74.625 28.492188 75.007812 C 28.148438 75.386719 27.839844 75.792969 27.5625 76.226562 C 27.289062 76.660156 27.050781 77.113281 26.851562 77.585938 C 26.652344 78.058594 26.492188 78.546875 26.375 79.046875 C 26.257812 79.542969 26.179688 80.050781 26.148438 80.5625 C 26.113281 81.074219 26.121094 81.585938 26.171875 82.097656 C 23.457031 85.519531 19.246094 95.054688 11.339844 123.421875 C 5.902344 142.441406 0.46875 165.183594 0.46875 170.589844 C 0.46875 174.828125 3.1875 178.386719 8.429688 180.617188 C 11.65625 181.898438 15 182.613281 18.464844 182.757812 C 21.933594 182.902344 25.328125 182.46875 28.644531 181.457031 L 25.929688 214.445312 C 25.910156 214.679688 25.914062 214.910156 25.945312 215.144531 C 25.976562 215.378906 26.027344 215.605469 26.105469 215.828125 C 26.183594 216.050781 26.28125 216.261719 26.402344 216.460938 C 26.523438 216.664062 26.664062 216.851562 26.820312 217.023438 C 26.980469 217.195312 27.15625 217.351562 27.347656 217.484375 C 27.539062 217.621094 27.742188 217.738281 27.960938 217.832031 C 28.175781 217.925781 28.398438 217.996094 28.628906 218.042969 C 28.859375 218.089844 29.089844 218.113281 29.324219 218.113281 L 106.027344 218.113281 C 107.023438 218.121094 107.855469 217.757812 108.527344 217.023438 C 109.207031 216.296875 109.507812 215.4375 109.425781 214.445312 L 106.707031 182.164062 C 110.4375 183.261719 114.230469 183.578125 118.089844 183.117188 L 115.589844 214.445312 C 115.507812 215.4375 115.808594 216.296875 116.488281 217.023438 C 117.160156 217.757812 117.992188 218.121094 118.988281 218.113281 L 195.71875 218.113281 C 195.953125 218.113281 196.183594 218.089844 196.414062 218.042969 C 196.644531 217.996094 196.867188 217.925781 197.082031 217.832031 C 197.300781 217.738281 197.503906 217.621094 197.695312 217.484375 C 197.886719 217.351562 198.0625 217.195312 198.222656 217.023438 C 198.378906 216.851562 198.519531 216.664062 198.640625 216.460938 C 198.761719 216.261719 198.859375 216.050781 198.9375 215.828125 C 199.015625 215.605469 199.066406 215.378906 199.097656 215.144531 C 199.128906 214.910156 199.132812 214.679688 199.113281 214.445312 L 196.398438 181.457031 C 199.714844 182.46875 203.109375 182.902344 206.578125 182.757812 C 210.042969 182.613281 213.386719 181.898438 216.613281 180.617188 C 221.746094 178.386719 224.574219 174.828125 224.574219 170.589844 C 224.574219 165.15625 219.816406 142.386719 215.417969 124.402344 C 205.472656 83.644531 201.695312 82.421875 199.523438 81.796875 Z M 99.152344 86.523438 C 101.039062 86.867188 102.804688 87.53125 104.453125 88.507812 C 105.046875 88.859375 105.660156 89.167969 106.300781 89.433594 C 106.714844 89.925781 107.070312 90.457031 107.359375 91.035156 L 78.394531 113.777344 L 57.5 84.1875 C 71.46875 83.46875 85.351562 84.25 99.152344 86.523438 Z M 33.101562 211.238281 L 35.953125 175.699219 L 39.1875 134.941406 C 39.226562 134.496094 39.175781 134.054688 39.039062 133.625 C 38.902344 133.199219 38.6875 132.8125 38.398438 132.46875 C 38.109375 132.125 37.761719 131.847656 37.363281 131.640625 C 36.964844 131.433594 36.539062 131.3125 36.089844 131.273438 C 35.640625 131.242188 35.203125 131.292969 34.773438 131.433594 C 34.34375 131.574219 33.957031 131.789062 33.613281 132.082031 C 33.269531 132.375 32.996094 132.722656 32.789062 133.125 C 32.582031 133.523438 32.460938 133.949219 32.421875 134.398438 L 29.296875 173.632812 C 25.195312 176.351562 16.882812 176.757812 11.175781 174.3125 C 10.007812 173.796875 7.289062 172.410156 7.289062 170.507812 C 7.289062 163.226562 22.179688 105.542969 29.378906 89.757812 L 56.007812 142.496094 C 56.515625 143.492188 57.09375 144.449219 57.734375 145.367188 C 58.375 146.285156 59.074219 147.152344 59.835938 147.972656 C 60.59375 148.792969 61.410156 149.558594 62.273438 150.269531 C 63.140625 150.976562 64.050781 151.625 65.003906 152.210938 C 65.957031 152.792969 66.945312 153.308594 67.972656 153.757812 C 68.996094 154.207031 70.046875 154.582031 71.125 154.886719 C 72.203125 155.191406 73.292969 155.421875 74.402344 155.578125 C 75.511719 155.730469 76.625 155.808594 77.742188 155.808594 C 80.878906 155.828125 83.894531 155.238281 86.789062 154.042969 L 97.441406 149.722656 L 99.589844 176.378906 L 102.304688 211.15625 Z M 118.769531 176.160156 C 116.644531 176.582031 114.503906 176.644531 112.359375 176.339844 C 110.210938 176.035156 108.171875 175.386719 106.246094 174.394531 L 104.042969 147.007812 L 121.679688 139.832031 Z M 213.867188 174.3125 C 208.160156 176.757812 199.847656 176.378906 195.746094 173.632812 L 192.730469 134.398438 C 192.691406 133.949219 192.570312 133.523438 192.363281 133.125 C 192.15625 132.722656 191.882812 132.375 191.539062 132.082031 C 191.195312 131.789062 190.808594 131.574219 190.378906 131.433594 C 189.949219 131.292969 189.511719 131.242188 189.0625 131.273438 C 188.609375 131.308594 188.183594 131.429688 187.78125 131.632812 C 187.378906 131.839844 187.027344 132.113281 186.734375 132.457031 C 186.441406 132.804688 186.226562 133.191406 186.089844 133.621094 C 185.949219 134.050781 185.898438 134.492188 185.9375 134.941406 L 189.167969 175.699219 L 191.886719 211.238281 L 122.792969 211.238281 L 128.878906 134.941406 L 128.878906 134.589844 C 128.867188 134.183594 128.785156 133.796875 128.632812 133.421875 C 128.46875 133.054688 128.25 132.71875 127.980469 132.417969 C 127.710938 132.175781 127.410156 131.976562 127.085938 131.816406 L 126.867188 131.816406 C 126.519531 131.675781 126.15625 131.601562 125.78125 131.601562 L 125.15625 131.601562 C 124.894531 131.5625 124.628906 131.5625 124.367188 131.601562 L 84.453125 147.902344 C 83.445312 148.304688 82.40625 148.613281 81.34375 148.824219 C 80.277344 149.035156 79.199219 149.148438 78.113281 149.160156 C 77.027344 149.171875 75.949219 149.082031 74.878906 148.894531 C 73.808594 148.707031 72.765625 148.421875 71.746094 148.042969 C 70.730469 147.660156 69.753906 147.1875 68.824219 146.628906 C 67.894531 146.066406 67.023438 145.425781 66.210938 144.703125 C 65.402344 143.980469 64.664062 143.1875 63.996094 142.328125 C 63.332031 141.46875 62.75 140.554688 62.257812 139.589844 L 32.964844 81.796875 C 32.722656 81.226562 32.125 79.839844 34.976562 78.5625 C 38.753906 76.878906 45.628906 77.421875 47.800781 82.125 C 47.890625 82.308594 47.988281 82.492188 48.101562 82.667969 L 74.890625 120.707031 C 75.453125 121.492188 76.214844 121.953125 77.171875 122.089844 C 78.179688 122.265625 79.085938 122.039062 79.890625 121.410156 L 120.074219 89.648438 C 120.738281 89.324219 121.363281 88.933594 121.949219 88.480469 C 123.117188 87.449219 124.464844 86.796875 126 86.523438 C 146.945312 83.300781 167.894531 83.300781 188.84375 86.523438 C 193.542969 87.257812 195.800781 87.746094 196.996094 88.046875 C 202.644531 94.8125 217.945312 161.679688 217.945312 170.507812 C 217.863281 172.410156 215.144531 173.796875 213.976562 174.3125 Z M 213.867188 174.3125 " fill-opacity="1" fill-rule="nonzero"/></g><path stroke-linecap="butt" transform="matrix(0.596906, -0.453435, 0.453435, 0.596906, 81.726084, 110.110305)" fill="none" stroke-linejoin="miter" d="M -0.000610155 2.000492 L 48.413632 1.99978 " stroke="#ffffff" stroke-width="4" stroke-opacity="1" stroke-miterlimit="4"/></svg>