<svg xmlns="http://www.w3.org/2000/svg" xmlns:xlink="http://www.w3.org/1999/xlink" width="500" zoomAndPan="magnify" viewBox="0 0 375 374.999991" height="500" preserveAspectRatio="xMidYMid meet" version="1.0"><defs><clipPath id="af5a9b5537"><path d="M 18.046875 193 L 177 193 L 177 375 L 18.046875 375 Z M 18.046875 193 " clip-rule="nonzero"/></clipPath></defs><g clip-path="url(#af5a9b5537)"><path fill="#5a5a5a" d="M 18.0625 358.636719 C 18.0625 367.660156 25.402344 375 34.425781 375 L 160.359375 375 C 169.382812 375 176.722656 367.660156 176.722656 358.636719 C 176.722656 323.496094 153.742188 293.667969 122.035156 283.269531 C 136.261719 274.820312 145.84375 259.34375 145.84375 241.628906 C 145.84375 214.914062 124.109375 193.179688 97.390625 193.179688 C 70.671875 193.179688 48.941406 214.914062 48.941406 241.628906 C 48.941406 259.34375 58.519531 274.820312 72.746094 283.269531 C 41.042969 293.667969 18.0625 323.496094 18.0625 358.636719 Z M 61.441406 241.628906 C 61.441406 221.804688 77.566406 205.679688 97.390625 205.679688 C 117.21875 205.679688 133.347656 221.804688 133.347656 241.628906 C 133.347656 261.453125 117.214844 277.578125 97.390625 277.578125 C 77.570312 277.578125 61.441406 261.453125 61.441406 241.628906 Z M 97.390625 291.800781 C 134.246094 291.800781 164.226562 321.78125 164.226562 358.636719 C 164.226562 360.765625 162.492188 362.5 160.359375 362.5 L 34.425781 362.5 C 32.296875 362.5 30.5625 360.765625 30.5625 358.636719 C 30.5625 321.78125 60.542969 291.800781 97.390625 291.800781 Z M 97.390625 291.800781 " fill-opacity="1" fill-rule="nonzero"/></g><path fill="#5a5a5a" d="M 326.007812 241.628906 C 326.007812 214.914062 304.277344 193.179688 277.558594 193.179688 C 250.839844 193.179688 229.105469 214.914062 229.105469 241.628906 C 229.105469 259.34375 238.6875 274.820312 252.914062 283.269531 C 221.207031 293.667969 198.226562 323.496094 198.226562 358.636719 C 198.226562 367.660156 205.566406 375 214.589844 375 L 340.519531 375 C 349.546875 375 356.886719 367.660156 356.886719 358.636719 C 356.886719 323.496094 333.90625 293.667969 302.203125 283.269531 C 316.425781 274.820312 326.007812 259.34375 326.007812 241.628906 Z M 344.390625 358.636719 C 344.390625 360.765625 342.65625 362.5 340.523438 362.5 L 214.589844 362.5 C 212.457031 362.5 210.726562 360.765625 210.726562 358.636719 C 210.726562 321.78125 240.707031 291.800781 277.558594 291.800781 C 314.410156 291.800781 344.390625 321.78125 344.390625 358.636719 Z M 277.558594 277.578125 C 257.734375 277.578125 241.605469 261.453125 241.605469 241.628906 C 241.605469 221.804688 257.734375 205.679688 277.558594 205.679688 C 297.382812 205.679688 313.511719 221.804688 313.511719 241.628906 C 313.511719 261.453125 297.382812 277.578125 277.558594 277.578125 Z M 277.558594 277.578125 " fill-opacity="1" fill-rule="nonzero"/><path fill="#5a5a5a" d="M 254.195312 86.089844 C 254.195312 86.773438 254.128906 87.453125 253.996094 88.121094 C 253.863281 88.792969 253.664062 89.445312 253.402344 90.074219 C 253.140625 90.707031 252.820312 91.308594 252.441406 91.875 C 252.058594 92.445312 251.628906 92.972656 251.144531 93.457031 C 250.660156 93.9375 250.132812 94.371094 249.566406 94.75 C 248.996094 95.128906 248.398438 95.453125 247.765625 95.714844 C 247.132812 95.976562 246.480469 96.171875 245.8125 96.304688 C 245.140625 96.441406 244.460938 96.507812 243.777344 96.507812 C 243.09375 96.507812 242.417969 96.441406 241.746094 96.304688 C 241.074219 96.171875 240.425781 95.976562 239.792969 95.714844 C 239.160156 95.453125 238.558594 95.128906 237.992188 94.75 C 237.421875 94.371094 236.898438 93.9375 236.414062 93.457031 C 235.929688 92.972656 235.496094 92.445312 235.117188 91.875 C 234.738281 91.308594 234.417969 90.707031 234.15625 90.074219 C 233.894531 89.445312 233.695312 88.792969 233.5625 88.121094 C 233.429688 87.453125 233.363281 86.773438 233.363281 86.089844 C 233.363281 85.40625 233.429688 84.730469 233.5625 84.058594 C 233.695312 83.386719 233.894531 82.734375 234.15625 82.105469 C 234.417969 81.472656 234.738281 80.871094 235.117188 80.304688 C 235.496094 79.734375 235.929688 79.207031 236.414062 78.722656 C 236.898438 78.242188 237.421875 77.808594 237.992188 77.429688 C 238.558594 77.050781 239.160156 76.726562 239.792969 76.464844 C 240.425781 76.203125 241.074219 76.007812 241.746094 75.875 C 242.417969 75.742188 243.09375 75.671875 243.777344 75.671875 C 244.460938 75.671875 245.140625 75.742188 245.8125 75.875 C 246.480469 76.007812 247.132812 76.203125 247.765625 76.464844 C 248.398438 76.726562 248.996094 77.050781 249.566406 77.429688 C 250.132812 77.808594 250.660156 78.242188 251.144531 78.722656 C 251.628906 79.207031 252.058594 79.734375 252.441406 80.304688 C 252.820312 80.871094 253.140625 81.472656 253.402344 82.105469 C 253.664062 82.734375 253.863281 83.386719 253.996094 84.058594 C 254.128906 84.730469 254.195312 85.40625 254.195312 86.089844 Z M 254.195312 86.089844 " fill-opacity="1" fill-rule="nonzero"/><path fill="#5a5a5a" d="M 197.890625 86.089844 C 197.890625 86.773438 197.824219 87.453125 197.691406 88.121094 C 197.558594 88.792969 197.359375 89.445312 197.097656 90.074219 C 196.835938 90.707031 196.515625 91.308594 196.136719 91.875 C 195.757812 92.445312 195.324219 92.972656 194.839844 93.457031 C 194.359375 93.9375 193.832031 94.371094 193.261719 94.75 C 192.695312 95.128906 192.09375 95.453125 191.460938 95.714844 C 190.832031 95.976562 190.179688 96.171875 189.507812 96.304688 C 188.835938 96.441406 188.160156 96.507812 187.476562 96.507812 C 186.792969 96.507812 186.113281 96.441406 185.445312 96.304688 C 184.773438 96.171875 184.121094 95.976562 183.488281 95.714844 C 182.859375 95.453125 182.257812 95.128906 181.6875 94.75 C 181.121094 94.371094 180.59375 93.9375 180.109375 93.457031 C 179.628906 92.972656 179.195312 92.445312 178.816406 91.875 C 178.433594 91.308594 178.113281 90.707031 177.851562 90.074219 C 177.589844 89.445312 177.394531 88.792969 177.261719 88.121094 C 177.125 87.453125 177.058594 86.773438 177.058594 86.089844 C 177.058594 85.40625 177.125 84.730469 177.261719 84.058594 C 177.394531 83.386719 177.589844 82.734375 177.851562 82.105469 C 178.113281 81.472656 178.433594 80.871094 178.816406 80.304688 C 179.195312 79.734375 179.628906 79.207031 180.109375 78.722656 C 180.59375 78.242188 181.121094 77.808594 181.6875 77.429688 C 182.257812 77.050781 182.859375 76.726562 183.488281 76.464844 C 184.121094 76.203125 184.773438 76.007812 185.445312 75.875 C 186.113281 75.742188 186.792969 75.671875 187.476562 75.671875 C 188.160156 75.671875 188.835938 75.742188 189.507812 75.875 C 190.179688 76.007812 190.832031 76.203125 191.460938 76.464844 C 192.09375 76.726562 192.695312 77.050781 193.261719 77.429688 C 193.832031 77.808594 194.359375 78.242188 194.839844 78.722656 C 195.324219 79.207031 195.757812 79.734375 196.136719 80.304688 C 196.515625 80.871094 196.835938 81.472656 197.097656 82.105469 C 197.359375 82.734375 197.558594 83.386719 197.691406 84.058594 C 197.824219 84.730469 197.890625 85.40625 197.890625 86.089844 Z M 197.890625 86.089844 " fill-opacity="1" fill-rule="nonzero"/><path fill="#5a5a5a" d="M 141.589844 86.089844 C 141.589844 86.773438 141.523438 87.453125 141.386719 88.121094 C 141.253906 88.792969 141.058594 89.445312 140.796875 90.074219 C 140.535156 90.707031 140.214844 91.308594 139.832031 91.875 C 139.453125 92.445312 139.023438 92.972656 138.539062 93.457031 C 138.054688 93.9375 137.527344 94.371094 136.960938 94.75 C 136.390625 95.128906 135.789062 95.453125 135.160156 95.714844 C 134.527344 95.976562 133.875 96.171875 133.203125 96.304688 C 132.535156 96.441406 131.855469 96.507812 131.171875 96.507812 C 130.488281 96.507812 129.8125 96.441406 129.140625 96.304688 C 128.46875 96.171875 127.816406 95.976562 127.1875 95.714844 C 126.554688 95.453125 125.953125 95.128906 125.386719 94.75 C 124.816406 94.371094 124.289062 93.9375 123.808594 93.457031 C 123.324219 92.972656 122.890625 92.445312 122.511719 91.875 C 122.132812 91.308594 121.8125 90.707031 121.550781 90.074219 C 121.289062 89.445312 121.089844 88.792969 120.957031 88.121094 C 120.824219 87.453125 120.757812 86.773438 120.757812 86.089844 C 120.757812 85.40625 120.824219 84.730469 120.957031 84.058594 C 121.089844 83.386719 121.289062 82.734375 121.550781 82.105469 C 121.8125 81.472656 122.132812 80.871094 122.511719 80.304688 C 122.890625 79.734375 123.324219 79.207031 123.808594 78.722656 C 124.289062 78.242188 124.816406 77.808594 125.386719 77.429688 C 125.953125 77.050781 126.554688 76.726562 127.1875 76.464844 C 127.816406 76.203125 128.46875 76.007812 129.140625 75.875 C 129.8125 75.742188 130.488281 75.671875 131.171875 75.671875 C 131.855469 75.671875 132.535156 75.742188 133.203125 75.875 C 133.875 76.007812 134.527344 76.203125 135.160156 76.464844 C 135.789062 76.726562 136.390625 77.050781 136.960938 77.429688 C 137.527344 77.808594 138.054688 78.242188 138.539062 78.722656 C 139.023438 79.207031 139.453125 79.734375 139.832031 80.304688 C 140.214844 80.871094 140.535156 81.472656 140.796875 82.105469 C 141.058594 82.734375 141.253906 83.386719 141.386719 84.058594 C 141.523438 84.730469 141.589844 85.40625 141.589844 86.089844 Z M 141.589844 86.089844 " fill-opacity="1" fill-rule="nonzero"/><path fill="#5a5a5a" d="M 216.6875 0 L 158.265625 0 C 110.796875 0 72.175781 38.617188 72.175781 86.09375 C 72.175781 133.5625 110.796875 172.179688 158.265625 172.179688 L 159.625 172.179688 L 174.402344 199.6875 C 176.964844 204.453125 181.917969 207.410156 187.328125 207.410156 C 192.84375 207.410156 197.835938 204.363281 200.367188 199.46875 L 214.464844 172.179688 L 216.6875 172.179688 C 264.15625 172.179688 302.773438 133.558594 302.773438 86.089844 C 302.773438 38.617188 264.15625 0 216.6875 0 Z M 216.6875 159.679688 L 210.660156 159.679688 C 208.328125 159.679688 206.179688 160.984375 205.109375 163.0625 L 189.257812 193.734375 C 188.730469 194.757812 187.824219 194.910156 187.328125 194.910156 C 186.839844 194.910156 185.949219 194.765625 185.414062 193.765625 L 168.863281 162.972656 C 167.773438 160.945312 165.664062 159.679688 163.359375 159.679688 L 158.265625 159.679688 C 117.6875 159.679688 84.675781 126.667969 84.675781 86.09375 C 84.675781 45.511719 117.6875 12.5 158.265625 12.5 L 216.6875 12.5 C 257.265625 12.5 290.273438 45.511719 290.273438 86.09375 C 290.273438 126.667969 257.265625 159.679688 216.6875 159.679688 Z M 216.6875 159.679688 " fill-opacity="1" fill-rule="nonzero"/><path stroke-linecap="butt" transform="matrix(0.75, 0, 0, 0.75, 127.499996, 7.929515)" fill="none" stroke-linejoin="miter" d="M 0.00000516333 2.000231 L 160.000016 2.000231 " stroke="#5a5a5a" stroke-width="4" stroke-opacity="1" stroke-miterlimit="4"/></svg>
