<svg version="1.1" xmlns="http://www.w3.org/2000/svg" xmlns:xlink="http://www.w3.org/1999/xlink" width="512.000000pt" height="512.000000pt" viewBox="0,0,256,256"><g fill="#6da7cc" fill-rule="nonzero" stroke="none" stroke-width="1" stroke-linecap="butt" stroke-linejoin="miter" stroke-miterlimit="10" stroke-dasharray="" stroke-dashoffset="0" font-family="none" font-weight="none" font-size="none" text-anchor="none" style="mix-blend-mode: normal"><g transform="translate(-0.23512,-0.02488) scale(0.5,0.5)"><g transform="translate(0,512) scale(0.1,-0.1)"><path d="M1485,5113c-358,-46 -658,-234 -789,-495c-60,-119 -80,-212 -72,-333c15,-252 143,-450 399,-617c59,-39 124,-89 143,-111c64,-76 86,-173 70,-308c-7,-61 -6,-68 17,-94c34,-41 76,-38 172,9c97,48 177,126 228,223c50,96 81,118 199,142c224,46 384,124 526,256c158,146 234,316 234,525c0,369 -262,661 -690,771c-129,33 -322,47 -437,32zM1863,4910c172,-44 319,-122 411,-221c111,-117 156,-228 156,-383c0,-145 -39,-248 -137,-356c-111,-124 -270,-205 -489,-250c-51,-11 -115,-30 -142,-44c-60,-30 -122,-97 -161,-173c-29,-55 -63,-103 -74,-103c-3,0 -8,25 -12,55c-10,80 -73,201 -140,268c-30,30 -87,73 -125,97c-183,108 -283,224 -331,381c-18,59 -21,87 -17,163c6,105 23,153 85,249c108,163 341,300 575,336c95,15 309,5 401,-19z"></path><path d="M1942,4684c-174,-54 -354,-201 -439,-357l-27,-48l-40,40c-55,53 -153,111 -189,111c-39,0 -87,-49 -87,-88c0,-34 23,-61 107,-120c68,-48 103,-95 133,-176c30,-79 74,-109 129,-87c35,15 47,36 66,116c49,214 215,386 428,445c51,14 97,57 97,91c0,28 -26,75 -45,83c-26,10 -86,5 -133,-10z"></path><path d="M2862,4334c-33,-23 -45,-60 -32,-99c8,-24 24,-39 63,-60c104,-56 187,-115 247,-175c212,-217 213,-507 0,-720c-36,-36 -73,-76 -82,-90c-23,-32 -24,-140 -3,-200c8,-23 15,-44 15,-46c0,-8 -78,33 -142,74c-37,23 -80,45 -96,48c-15,3 -77,-4 -136,-16c-92,-19 -129,-22 -255,-17c-216,7 -372,57 -543,174c-84,57 -127,62 -164,19c-30,-34 -31,-75 -3,-110c40,-51 201,-146 331,-196c190,-73 493,-94 673,-46l59,15l53,-35c118,-78 242,-116 385,-118c112,-1 134,11 145,78c6,35 3,39 -60,99c-67,62 -97,113 -97,163c0,19 18,46 64,94c196,208 249,499 135,740c-79,167 -202,288 -411,403c-72,40 -111,46 -146,21z"></path><path d="M985,2951c-94,-27 -164,-70 -246,-151c-145,-144 -201,-338 -154,-538c69,-291 371,-488 659,-429c126,26 216,74 305,165c112,113 170,249 171,398c1,254 -183,493 -430,559c-75,20 -229,18 -305,-4zM1234,2718c56,-16 138,-71 172,-115c60,-79 83,-201 56,-299c-26,-93 -116,-186 -211,-219c-222,-76 -465,116 -438,346c25,206 226,343 421,287z"></path><path d="M3805,2942c-197,-67 -338,-227 -381,-432c-64,-302 142,-610 451,-675c131,-27 249,-11 375,52c144,73 268,233 300,389c17,79 8,235 -16,305c-63,180 -220,327 -400,374c-96,25 -234,20 -329,-13zM4104,2709c72,-26 144,-93 181,-166c26,-51 30,-69 30,-143c0,-73 -4,-93 -28,-141c-60,-124 -179,-194 -317,-187c-263,12 -404,308 -249,523c84,117 247,165 383,114z"></path><path d="M679,1659c-291,-31 -544,-242 -640,-534c-23,-68 -23,-83 -27,-499c-3,-382 -1,-435 13,-473c24,-62 61,-102 120,-129l50,-24h939c684,0 949,3 977,12c51,15 114,69 142,122c21,40 22,52 25,390c2,202 -1,391 -7,447c-21,196 -84,331 -216,465c-131,133 -274,202 -463,224c-102,12 -802,11 -913,-1zM1651,1404c183,-55 308,-180 363,-363c13,-46 16,-114 16,-428v-373h-105h-105v341c0,231 -4,347 -11,362c-26,51 -91,73 -140,47c-46,-25 -49,-47 -49,-410v-340h-475h-475v324c0,178 -3,337 -6,355c-15,76 -103,107 -161,57l-28,-24l-5,-354l-5,-353l-107,-3l-108,-3v354c0,198 4,378 10,408c34,181 185,346 365,400c54,16 109,18 516,18c391,1 463,-1 510,-15z"></path><path d="M3523,1659c-272,-33 -511,-217 -612,-470c-53,-135 -56,-161 -56,-594c0,-364 2,-404 18,-447c23,-59 91,-121 149,-137c32,-9 290,-11 989,-9l946,3l49,30c30,19 60,49 79,79l30,49l3,396c2,244 -1,422 -8,464c-38,248 -198,461 -426,568c-149,70 -158,72 -649,75c-242,1 -473,-2 -512,-7zM4500,1401c170,-49 297,-173 358,-350c13,-38 16,-113 19,-429l4,-383l-108,3l-108,3l-5,353l-5,354l-28,24c-58,50 -146,19 -161,-57c-3,-18 -6,-177 -6,-355v-324h-475h-475v340c0,285 -2,346 -15,370c-18,35 -43,50 -85,50c-42,0 -67,-15 -85,-50c-13,-24 -15,-85 -15,-370v-340h-105h-105v368c0,298 3,379 15,427c46,175 192,322 366,369c43,12 144,15 504,15c411,1 456,-1 515,-18z"></path></g></g></g></svg>
