<svg xmlns="http://www.w3.org/2000/svg" xmlns:xlink="http://www.w3.org/1999/xlink" width="500" zoomAndPan="magnify" viewBox="0 0 375 374.999991" height="500" preserveAspectRatio="xMidYMid meet" version="1.0"><path fill="#5a5a5a" d="M 374.792969 20.523438 C 374.792969 15.140625 372.648438 9.96875 368.84375 6.15625 C 365.03125 2.351562 359.859375 0.207031 354.476562 0.207031 C 296.753906 0.207031 78.246094 0.207031 20.523438 0.207031 C 15.140625 0.207031 9.96875 2.351562 6.15625 6.15625 C 2.351562 9.96875 0.207031 15.140625 0.207031 20.523438 C 0.207031 69.011719 0.207031 226.292969 0.207031 226.292969 C 0.207031 229.746094 3.011719 232.550781 6.464844 232.550781 L 368.535156 232.550781 C 371.988281 232.550781 374.792969 229.746094 374.792969 226.292969 Z M 362.277344 220.035156 L 362.277344 20.523438 C 362.277344 18.453125 361.460938 16.472656 360 15.011719 C 358.527344 13.539062 356.546875 12.722656 354.476562 12.722656 C 296.753906 12.722656 78.246094 12.722656 20.523438 12.722656 C 18.453125 12.722656 16.472656 13.539062 15 15.011719 C 13.539062 16.472656 12.722656 18.453125 12.722656 20.523438 L 12.722656 220.035156 Z M 362.277344 220.035156 " fill-opacity="1" fill-rule="evenodd"/><path fill="#5a5a5a" d="M 374.792969 226.292969 C 374.792969 222.839844 371.988281 220.035156 368.535156 220.035156 L 6.464844 220.035156 C 3.011719 220.035156 0.207031 222.839844 0.207031 226.292969 L 0.207031 245.949219 C 0.207031 256.113281 4.242188 265.863281 11.429688 273.050781 C 18.621094 280.242188 28.371094 284.277344 38.535156 284.277344 C 107.199219 284.277344 267.800781 284.277344 336.464844 284.277344 C 346.628906 284.277344 356.378906 280.242188 363.570312 273.050781 C 370.757812 265.863281 374.792969 256.113281 374.792969 245.949219 C 374.792969 235.382812 374.792969 226.292969 374.792969 226.292969 Z M 362.277344 232.550781 L 12.722656 232.550781 L 12.722656 245.949219 C 12.722656 252.800781 15.441406 259.359375 20.277344 264.207031 C 25.125 269.042969 31.679688 271.757812 38.535156 271.757812 C 107.199219 271.757812 267.800781 271.757812 336.464844 271.757812 C 343.320312 271.757812 349.875 269.042969 354.722656 264.207031 C 359.558594 259.359375 362.277344 252.800781 362.277344 245.949219 Z M 362.277344 232.550781 " fill-opacity="1" fill-rule="evenodd"/><path fill="#5a5a5a" d="M 232.550781 278.015625 C 232.550781 274.566406 229.746094 271.757812 226.292969 271.757812 L 148.707031 271.757812 C 145.253906 271.757812 142.449219 274.566406 142.449219 278.015625 L 142.449219 329.742188 C 142.449219 333.195312 145.253906 336 148.707031 336 L 226.292969 336 C 229.746094 336 232.550781 333.195312 232.550781 329.742188 Z M 154.964844 284.277344 L 154.964844 323.484375 L 220.035156 323.484375 L 220.035156 284.277344 Z M 154.964844 284.277344 " fill-opacity="1" fill-rule="evenodd"/><path fill="#5a5a5a" d="M 348.929688 368.507812 C 348.929688 356.574219 344.183594 345.117188 335.742188 336.671875 C 327.296875 328.226562 315.839844 323.484375 303.90625 323.484375 C 244.28125 323.484375 130.71875 323.484375 71.09375 323.484375 C 59.160156 323.484375 47.703125 328.226562 39.257812 336.671875 C 30.816406 345.117188 26.070312 356.574219 26.070312 368.507812 C 26.070312 368.523438 26.070312 368.535156 26.070312 368.535156 C 26.070312 371.988281 28.875 374.792969 32.328125 374.792969 L 342.671875 374.792969 C 346.125 374.792969 348.929688 371.988281 348.929688 368.535156 Z M 335.820312 362.277344 C 334.578125 355.976562 331.5 350.121094 326.898438 345.515625 C 320.792969 339.425781 312.53125 336 303.90625 336 C 244.28125 336 130.71875 336 71.09375 336 C 62.46875 336 54.207031 339.425781 48.101562 345.515625 C 43.5 350.121094 40.421875 355.976562 39.179688 362.277344 Z M 335.820312 362.277344 " fill-opacity="1" fill-rule="evenodd"/><path fill="#5a5a5a" d="M 174.570312 258.414062 L 200.429688 258.414062 C 203.882812 258.414062 206.691406 255.609375 206.691406 252.15625 C 206.691406 248.703125 203.882812 245.898438 200.429688 245.898438 L 174.570312 245.898438 C 171.117188 245.898438 168.308594 248.703125 168.308594 252.15625 C 168.308594 255.609375 171.117188 258.414062 174.570312 258.414062 Z M 174.570312 258.414062 " fill-opacity="1" fill-rule="evenodd"/><path fill="#5a5a5a" d="M 284.277344 205.863281 C 284.277344 185.40625 276.15625 165.800781 261.683594 151.34375 C 247.226562 136.886719 227.625 128.753906 207.179688 128.753906 C 194.25 128.753906 180.75 128.753906 167.820312 128.753906 C 147.375 128.753906 127.773438 136.886719 113.316406 151.34375 C 98.84375 165.800781 90.722656 185.40625 90.722656 205.863281 C 90.722656 217.734375 90.722656 226.292969 90.722656 226.292969 C 90.722656 229.746094 93.53125 232.550781 96.984375 232.550781 L 278.015625 232.550781 C 281.46875 232.550781 284.277344 229.746094 284.277344 226.292969 Z M 271.757812 220.035156 L 271.757812 205.863281 C 271.757812 188.726562 264.957031 172.304688 252.839844 160.191406 C 240.738281 148.074219 224.300781 141.273438 207.179688 141.273438 C 194.25 141.273438 180.75 141.273438 167.820312 141.273438 C 150.699219 141.273438 134.261719 148.074219 122.160156 160.191406 C 110.042969 172.304688 103.242188 188.726562 103.242188 205.863281 L 103.242188 220.035156 Z M 271.757812 220.035156 " fill-opacity="1" fill-rule="evenodd"/><path fill="#5a5a5a" d="M 187.5 26.070312 C 162.011719 26.070312 141.308594 46.773438 141.308594 72.257812 C 141.308594 97.757812 162.011719 118.449219 187.5 118.449219 C 212.988281 118.449219 233.691406 97.757812 233.691406 72.257812 C 233.691406 46.773438 212.988281 26.070312 187.5 26.070312 Z M 187.5 38.585938 C 206.082031 38.585938 221.171875 53.675781 221.171875 72.257812 C 221.171875 90.851562 206.082031 105.945312 187.5 105.945312 C 168.917969 105.945312 153.828125 90.851562 153.828125 72.257812 C 153.828125 53.675781 168.917969 38.585938 187.5 38.585938 Z M 187.5 38.585938 " fill-opacity="1" fill-rule="evenodd"/></svg>
