<svg version="1.1" xmlns="http://www.w3.org/2000/svg" xmlns:xlink="http://www.w3.org/1999/xlink" width="512.000000pt" height="512.000000pt" viewBox="0,0,256,256"><g fill="#0A4876" fill-rule="nonzero" stroke="none" stroke-width="1" stroke-linecap="butt" stroke-linejoin="miter" stroke-miterlimit="10" stroke-dasharray="" stroke-dashoffset="0" font-family="none" font-weight="none" font-size="none" text-anchor="none" style="mix-blend-mode: normal"><g transform="translate(0,-0.05) scale(0.5,0.5)"><g transform="translate(0,512) scale(0.1,-0.1)"><path d="M1025,5107c-45,-17 -69,-37 -99,-81c-25,-38 -26,-43 -26,-187v-148l-307,-3l-308,-3l-61,-28c-77,-36 -154,-113 -191,-192l-28,-60l-3,-1480c-2,-1460 -2,-1481 18,-1545c35,-115 114,-198 226,-240c54,-20 74,-20 964,-20c500,0 911,-3 913,-7c4,-7 -33,-305 -48,-390c-6,-33 -6,-33 -63,-33c-68,0 -118,-23 -148,-67c-25,-38 -125,-387 -131,-458c-5,-64 19,-112 73,-142l39,-23h715h715l39,23c54,30 78,78 73,142c-6,71 -106,420 -131,458c-30,44 -80,67 -148,67c-57,0 -57,0 -63,33c-15,85 -52,383 -48,389c2,5 413,8 913,8c890,0 910,0 964,20c112,42 191,125 226,240c20,64 20,85 18,1640l-3,1575l-27,50c-32,60 -87,114 -148,146c-44,24 -50,24 -382,27l-338,3v83c0,73 -3,88 -26,122c-30,44 -54,64 -99,81c-22,9 -407,11 -1535,11c-1128,0 -1513,-2 -1535,-11zM4058,4958c7,-7 12,-39 12,-75v-63h-263c-207,0 -274,-3 -315,-15c-102,-31 -190,-126 -212,-230l-11,-55h-343c-331,0 -343,-1 -364,-20c-14,-14 -22,-33 -22,-55c0,-22 8,-41 22,-55c21,-19 33,-20 364,-20h342l4,-232c3,-224 4,-235 28,-283c32,-64 92,-124 155,-154c41,-20 71,-25 163,-29l112,-5v-87c0,-97 13,-127 69,-150c49,-20 80,-4 178,92l92,91l3,-597l3,-598l28,-24c34,-29 56,-30 91,-3l26,20v630v629h225h225v-975v-975h-225h-225v205c0,192 -1,206 -20,225c-22,22 -60,26 -90,10c-32,-17 -40,-67 -40,-256v-184h-289h-289l-4,263c-4,231 -7,269 -25,324c-27,81 -70,148 -137,211c-60,57 -106,82 -263,142c-145,55 -166,76 -171,170l-4,70l58,63c33,34 72,88 87,119c54,107 57,133 57,515c0,331 -1,356 -21,407c-25,67 -86,133 -154,166c-50,25 -51,25 -355,25c-304,0 -305,0 -355,-25c-68,-33 -129,-99 -154,-166c-20,-51 -21,-76 -21,-407c0,-380 3,-407 56,-514c14,-30 53,-84 86,-119l60,-64l-4,-70c-5,-94 -26,-115 -171,-170c-157,-60 -203,-85 -263,-142c-67,-63 -110,-130 -137,-211c-18,-55 -21,-93 -25,-324l-4,-263h-289h-289v1325v1325h618c608,0 619,0 640,20c14,14 22,33 22,55c0,22 -8,41 -22,55c-21,20 -32,20 -640,20h-618v213c0,152 3,216 12,225c17,17 2979,17 2996,0zM4896,4644c15,-11 37,-33 48,-48c20,-26 21,-40 21,-349v-322l-24,-34c-49,-69 -62,-71 -479,-71c-254,0 -380,-4 -395,-11c-12,-6 -59,-48 -104,-92l-83,-82v38c0,55 -24,104 -62,127c-28,17 -50,20 -149,20c-142,0 -188,19 -226,90c-23,42 -23,49 -23,334c0,262 2,295 19,332c17,38 54,73 91,87c8,3 313,5 677,4c651,-2 662,-2 689,-23zM898,4463l3,-73h-256c-209,0 -261,-3 -285,-15c-64,-33 -60,59 -58,-1411l3,-1336l33,-29l32,-29h2190h2190l32,29l33,29l3,1021l2,1021l28,5c31,7 91,24 110,31c9,5 12,-225 12,-1129v-1135l-28,-53c-17,-34 -44,-65 -71,-84l-43,-30h-2268h-2268l-43,30c-27,19 -54,50 -71,84l-28,53v1450c0,1114 3,1460 12,1492c15,50 89,127 138,143c23,7 132,11 315,10l280,-2zM898,2978l2,-1258h-225h-225v1260v1260l223,-2l222,-3zM2861,4027c18,-12 44,-38 56,-56c22,-32 23,-44 23,-203v-169l-22,6c-41,13 -87,46 -118,85c-40,51 -84,61 -137,31c-152,-86 -250,-117 -392,-128l-91,-6v175c0,166 1,177 23,209c12,18 38,44 56,56c33,23 40,23 301,23c261,0 268,0 301,-23zM2736,3540c44,-38 98,-66 158,-81l48,-12l-4,-111c-3,-95 -7,-119 -30,-168c-73,-156 -250,-250 -410,-218c-128,24 -233,105 -286,218c-23,48 -28,73 -30,165l-4,107h50c131,0 304,42 412,99c30,17 57,30 59,30c2,1 19,-12 37,-29zM2493,2799c63,-10 150,-3 225,17c20,6 22,3 22,-28c0,-20 13,-62 30,-94c34,-69 31,-78 -53,-116c-44,-19 -68,-23 -157,-23c-89,0 -113,4 -157,23c-84,38 -87,47 -53,116c17,32 30,74 30,94c0,31 2,34 23,28c12,-3 52,-11 90,-17zM2292,2467c15,-9 61,-28 102,-42c105,-35 228,-35 333,0c72,24 167,79 193,110c10,12 20,11 68,-7c125,-45 217,-95 254,-136c84,-94 98,-157 98,-454v-218h-149h-149l-4,116c-3,113 -4,116 -31,140c-34,29 -56,30 -91,3c-25,-20 -26,-23 -26,-140v-119h-330h-330v119c0,117 -1,120 -26,140c-35,27 -57,26 -91,-3c-27,-24 -28,-27 -31,-140l-4,-116h-150h-150l4,258c3,253 4,258 30,314c30,65 91,135 140,161c18,9 78,35 133,56l100,39l40,-32c22,-18 52,-40 67,-49zM2845,1078c3,-24 16,-119 28,-213l23,-170l-335,-3c-184,-1 -335,-1 -336,0c-2,3 19,166 50,386l6,42h279h279zM3188,351c29,-104 52,-192 52,-195c0,-3 -306,-6 -680,-6c-374,0 -680,3 -680,6c0,3 23,91 52,195l51,189h577h577z"></path><path d="M1222,4800c-47,-44 -15,-130 48,-130c38,0 70,34 70,75c0,41 -32,75 -70,75c-14,0 -36,-9 -48,-20z"></path><path d="M1522,4800c-47,-44 -15,-130 48,-130c38,0 70,34 70,75c0,41 -32,75 -70,75c-14,0 -36,-9 -48,-20z"></path><path d="M1822,4800c-47,-44 -15,-130 48,-130c38,0 70,34 70,75c0,41 -32,75 -70,75c-14,0 -36,-9 -48,-20z"></path><path d="M3633,4444c-20,-20 -24,-31 -19,-57c13,-70 -11,-67 583,-67h534l24,25c30,30 32,64 4,99l-20,26h-540h-540z"></path><path d="M3633,4144c-20,-20 -24,-31 -19,-57c13,-70 -11,-67 583,-67h534l24,25c30,30 32,64 4,99l-20,26h-540h-540z"></path></g></g></g></svg>
