<svg xmlns="http://www.w3.org/2000/svg" xmlns:xlink="http://www.w3.org/1999/xlink" width="300" zoomAndPan="magnify" viewBox="0 0 224.87999 225" height="300" preserveAspectRatio="xMidYMid meet" version="1.0"><defs><clipPath id="add1017637"><path d="M 8 8 L 224.761719 8 L 224.761719 224.9375 L 8 224.9375 Z M 8 8 " clip-rule="nonzero"/></clipPath><clipPath id="0bc12c6a98"><path d="M 48 0.0585938 L 59 0.0585938 L 59 39 L 48 39 Z M 48 0.0585938 " clip-rule="nonzero"/></clipPath></defs><g clip-path="url(#add1017637)"><path fill="#ffffff" d="M 8.65625 116.910156 C 8.65625 118.203125 9.171875 119.441406 10.074219 120.355469 L 47.972656 158.246094 C 49.296875 159.558594 51.246094 160.007812 52.96875 159.421875 C 54.722656 158.828125 55.988281 157.308594 56.238281 155.480469 C 56.84375 151.167969 58.722656 147.324219 61.691406 144.351562 C 69.070312 136.984375 81.910156 136.984375 89.289062 144.351562 C 96.894531 151.964844 96.894531 164.339844 89.289062 171.953125 C 86.320312 174.921875 82.476562 176.800781 78.164062 177.394531 C 76.332031 177.648438 74.804688 178.914062 74.21875 180.664062 C 73.625 182.417969 74.074219 184.34375 75.386719 185.660156 L 113.382812 223.65625 C 114.300781 224.570312 115.535156 225.078125 116.832031 225.078125 C 118.125 225.078125 119.363281 224.558594 120.277344 223.65625 L 152.429688 191.5 C 153.832031 194.449219 155.730469 197.144531 158.066406 199.484375 C 169.117188 210.53125 188.382812 210.53125 199.433594 199.484375 C 210.832031 188.082031 210.832031 169.519531 199.433594 158.117188 C 197.097656 155.78125 194.398438 153.882812 191.449219 152.480469 L 223.585938 120.347656 C 224.5 119.429688 225.007812 118.195312 225.007812 116.898438 C 225.007812 115.605469 224.492188 114.371094 223.585938 113.453125 L 191.351562 81.230469 C 194.351562 79.828125 197.066406 77.921875 199.433594 75.554688 C 210.832031 64.15625 210.832031 45.589844 199.433594 34.191406 C 188.382812 23.140625 169.117188 23.152344 158.066406 34.191406 C 155.703125 36.558594 153.804688 39.273438 152.394531 42.269531 L 120.277344 10.15625 C 118.378906 8.257812 115.292969 8.257812 113.394531 10.15625 L 75.503906 48.042969 C 74.199219 49.347656 73.742188 51.277344 74.328125 53.027344 C 74.921875 54.78125 76.441406 56.046875 78.261719 56.308594 C 82.523438 56.914062 86.339844 58.792969 89.289062 61.742188 C 96.894531 69.355469 96.894531 81.738281 89.289062 89.339844 C 81.910156 96.71875 69.070312 96.71875 61.691406 89.339844 C 58.742188 86.398438 56.863281 82.59375 56.25 78.320312 C 55.988281 76.488281 54.722656 74.972656 52.96875 74.386719 C 51.214844 73.8125 49.296875 74.269531 47.984375 75.566406 L 10.074219 113.472656 C 9.160156 114.386719 8.65625 115.625 8.65625 116.917969 Z M 49.132812 88.183594 C 50.542969 91.160156 52.441406 93.867188 54.796875 96.222656 C 65.847656 107.28125 85.113281 107.28125 96.164062 96.222656 C 107.5625 84.824219 107.5625 66.269531 96.164062 54.847656 C 93.808594 52.492188 91.089844 50.59375 88.113281 49.191406 L 116.820312 20.484375 L 151.234375 54.898438 C 152.546875 56.203125 154.476562 56.679688 156.21875 56.074219 C 157.972656 55.492188 159.246094 53.972656 159.5 52.144531 C 160.101562 47.867188 161.980469 44.042969 164.941406 41.09375 C 172.320312 33.714844 185.160156 33.722656 192.539062 41.09375 C 200.144531 48.707031 200.144531 61.078125 192.539062 68.683594 C 189.582031 71.640625 185.765625 73.519531 181.480469 74.125 C 179.652344 74.378906 178.121094 75.652344 177.539062 77.394531 C 176.953125 79.148438 177.410156 81.074219 178.714844 82.378906 L 213.246094 116.898438 L 178.84375 151.304688 C 177.539062 152.609375 177.082031 154.535156 177.664062 156.277344 C 178.25 158.03125 179.757812 159.296875 181.578125 159.558594 C 185.824219 160.183594 189.609375 162.050781 192.539062 164.992188 C 200.144531 172.605469 200.144531 184.976562 192.539062 192.589844 C 185.160156 199.949219 172.320312 199.96875 164.941406 192.589844 C 162 189.660156 160.132812 185.875 159.507812 181.628906 C 159.246094 179.808594 157.972656 178.289062 156.21875 177.714844 C 154.476562 177.140625 152.558594 177.597656 151.242188 178.894531 L 116.820312 213.324219 L 88.023438 184.53125 C 91.042969 183.117188 93.789062 181.210938 96.164062 178.824219 C 107.5625 167.425781 107.5625 148.859375 96.164062 137.460938 C 85.113281 126.410156 65.847656 126.410156 54.796875 137.460938 C 52.421875 139.847656 50.503906 142.582031 49.09375 145.589844 L 20.40625 116.898438 L 49.132812 88.171875 Z M 49.132812 88.183594 " fill-opacity="1" fill-rule="nonzero"/></g><path fill="#ffffff" d="M 30.625 37.578125 C 31.582031 38.53125 32.828125 39 34.074219 39 C 35.320312 39 36.566406 38.523438 37.519531 37.578125 C 39.417969 35.679688 39.417969 32.59375 37.519531 30.695312 L 18.046875 11.214844 C 16.152344 9.316406 13.066406 9.316406 11.167969 11.214844 C 9.269531 13.113281 9.269531 16.199219 11.167969 18.097656 L 30.636719 37.570312 Z M 30.625 37.578125 " fill-opacity="1" fill-rule="nonzero"/><g clip-path="url(#0bc12c6a98)"><path fill="#ffffff" d="M 53.542969 39 C 56.230469 39 58.410156 36.820312 58.410156 34.132812 L 58.410156 4.925781 C 58.410156 2.242188 56.230469 0.0585938 53.542969 0.0585938 C 50.855469 0.0585938 48.675781 2.242188 48.675781 4.925781 L 48.675781 34.132812 C 48.675781 36.820312 50.855469 39 53.542969 39 Z M 53.542969 39 " fill-opacity="1" fill-rule="nonzero"/></g><path fill="#ffffff" d="M 4.867188 58.46875 L 34.074219 58.46875 C 36.757812 58.46875 38.941406 56.289062 38.941406 53.601562 C 38.941406 50.914062 36.757812 48.734375 34.074219 48.734375 L 4.867188 48.734375 C 2.179688 48.734375 0 50.914062 0 53.601562 C 0 56.289062 2.179688 58.46875 4.867188 58.46875 Z M 4.867188 58.46875 " fill-opacity="1" fill-rule="nonzero"/><path stroke-linecap="butt" transform="matrix(0.596906, -0.453435, 0.453435, 0.596906, 14.740554, 110.110305)" fill="none" stroke-linejoin="miter" d="M 0.00061649 2.001424 L 48.414858 2.000711 " stroke="#ffffff" stroke-width="4" stroke-opacity="1" stroke-miterlimit="4"/></svg>