<svg xmlns="http://www.w3.org/2000/svg" xmlns:xlink="http://www.w3.org/1999/xlink" width="300" zoomAndPan="magnify" viewBox="0 0 224.87999 225" height="300" preserveAspectRatio="xMidYMid meet" version="1.0"><defs><clipPath id="775e83882e"><path d="M 7.765625 0.0585938 L 216.902344 0.0585938 L 216.902344 224.191406 L 7.765625 224.191406 Z M 7.765625 0.0585938 " clip-rule="nonzero"/></clipPath><clipPath id="6a3f27319c"><path d="M 43 203 L 107 203 L 107 224.9375 L 43 224.9375 Z M 43 203 " clip-rule="nonzero"/></clipPath></defs><g clip-path="url(#775e83882e)"><path fill="#ffffff" d="M 13.34375 61.324219 C 13.34375 47.539062 24.558594 36.316406 38.347656 36.316406 C 52.136719 36.316406 63.355469 47.539062 63.355469 61.324219 C 63.355469 75.109375 52.136719 86.332031 38.347656 86.332031 C 24.5625 86.332031 13.34375 75.109375 13.34375 61.324219 Z M 68.933594 61.324219 C 68.933594 44.460938 55.210938 30.738281 38.347656 30.738281 C 21.484375 30.738281 7.765625 44.460938 7.765625 61.324219 C 7.765625 78.1875 21.484375 91.910156 38.347656 91.910156 C 55.214844 91.910156 68.933594 78.1875 68.933594 61.324219 Z M 23.035156 61.324219 C 23.035156 69.769531 29.902344 76.640625 38.347656 76.640625 C 46.792969 76.640625 53.664062 69.769531 53.664062 61.324219 C 53.664062 52.878906 46.792969 46.007812 38.347656 46.007812 C 29.902344 46.007812 23.035156 52.878906 23.035156 61.324219 Z M 59.242188 61.324219 C 59.242188 49.800781 49.867188 40.429688 38.347656 40.429688 C 26.828125 40.429688 17.457031 49.804688 17.457031 61.324219 C 17.457031 72.84375 26.828125 82.21875 38.347656 82.21875 C 49.867188 82.21875 59.242188 72.847656 59.242188 61.324219 Z M 44.695312 64.113281 C 46.230469 64.113281 47.480469 62.863281 47.480469 61.324219 C 47.480469 59.785156 46.230469 58.535156 44.695312 58.535156 L 40.832031 58.535156 L 40.832031 52.457031 C 40.832031 50.917969 39.582031 49.667969 38.042969 49.667969 C 36.503906 49.667969 35.253906 50.917969 35.253906 52.457031 L 35.253906 61.324219 C 35.253906 62.867188 36.503906 64.113281 38.042969 64.113281 Z M 106.4375 5.746094 C 120.230469 5.746094 131.445312 16.964844 131.445312 30.753906 C 131.445312 44.539062 120.230469 55.761719 106.4375 55.761719 C 92.652344 55.761719 81.433594 44.539062 81.433594 30.753906 C 81.4375 16.964844 92.652344 5.746094 106.4375 5.746094 Z M 106.4375 61.332031 C 123.300781 61.332031 137.023438 47.613281 137.023438 30.75 C 137.023438 13.886719 123.300781 0.164062 106.4375 0.164062 C 89.574219 0.164062 75.855469 13.886719 75.855469 30.75 C 75.855469 47.617188 89.574219 61.332031 106.4375 61.332031 Z M 111.691406 36.140625 C 111.691406 34.597656 110.441406 33.351562 108.902344 33.351562 L 103.976562 33.351562 C 102.4375 33.351562 101.1875 34.601562 101.1875 36.140625 C 101.1875 37.679688 102.4375 38.929688 103.976562 38.929688 L 108.902344 38.929688 C 110.445312 38.929688 111.691406 37.679688 111.691406 36.140625 Z M 111.691406 25.363281 C 111.691406 23.824219 110.441406 22.574219 108.902344 22.574219 L 103.976562 22.574219 C 102.4375 22.574219 101.1875 23.824219 101.1875 25.363281 C 101.1875 26.90625 102.4375 28.152344 103.976562 28.152344 L 108.902344 28.152344 C 110.445312 28.152344 111.691406 26.90625 111.691406 25.363281 Z M 97.90625 17.460938 L 97.90625 44.046875 L 114.972656 44.046875 L 114.972656 17.460938 Z M 95.117188 49.625 L 117.761719 49.625 C 119.304688 49.625 120.550781 48.375 120.550781 46.835938 L 120.550781 14.671875 C 120.550781 13.128906 119.304688 11.882812 117.761719 11.882812 L 95.117188 11.882812 C 93.574219 11.882812 92.328125 13.128906 92.328125 14.671875 L 92.328125 46.835938 C 92.328125 48.375 93.574219 49.625 95.117188 49.625 Z M 177.175781 218.628906 L 35.699219 218.628906 C 34.796875 208.28125 36.042969 197.941406 39.195312 189.910156 C 43.242188 179.597656 50.007812 173.488281 59.289062 171.738281 C 67.101562 170.269531 73.199219 167.796875 79.050781 163.714844 C 79.554688 163.367188 80.050781 163 80.554688 162.625 L 104.003906 204.683594 C 104.496094 205.566406 105.429688 206.117188 106.4375 206.117188 C 107.453125 206.117188 108.382812 205.566406 108.875 204.683594 L 132.328125 162.625 C 132.824219 163 133.328125 163.367188 133.824219 163.714844 C 139.679688 167.792969 145.773438 170.269531 153.589844 171.738281 C 162.871094 173.488281 169.632812 179.597656 173.683594 189.910156 C 176.84375 197.9375 178.082031 208.28125 177.175781 218.628906 Z M 77.59375 121.753906 C 76.996094 113.121094 80.3125 103.671875 86.25 97.097656 C 91.503906 91.28125 98.484375 88.058594 106.4375 87.78125 C 114.394531 88.058594 121.371094 91.28125 126.625 97.097656 C 132.566406 103.671875 135.882812 113.117188 135.285156 121.753906 C 134.742188 129.652344 131.980469 138.226562 127.902344 144.6875 C 121.976562 154.082031 114.355469 159.257812 106.4375 159.257812 C 98.523438 159.257812 90.898438 154.085938 84.972656 144.6875 C 80.898438 138.226562 78.140625 129.652344 77.59375 121.753906 Z M 87.398438 156.523438 C 86.554688 157.386719 85.71875 158.199219 84.894531 158.960938 L 106.4375 197.601562 L 127.980469 158.960938 C 127.160156 158.199219 126.328125 157.386719 125.476562 156.523438 C 119.789062 161.941406 113.257812 164.832031 106.4375 164.832031 C 99.625 164.835938 93.089844 161.941406 87.398438 156.523438 Z M 154.621094 166.257812 C 147.621094 164.945312 142.191406 162.75 137.019531 159.144531 C 134.480469 157.371094 131.96875 155.195312 129.246094 152.402344 C 130.421875 150.945312 131.550781 149.363281 132.621094 147.664062 C 139.171875 137.277344 140.558594 126.351562 140.847656 122.136719 C 141.550781 112.042969 137.683594 101.015625 130.765625 93.355469 C 124.453125 86.367188 116.074219 82.511719 106.53125 82.199219 C 106.472656 82.199219 106.410156 82.199219 106.351562 82.199219 C 96.808594 82.511719 88.425781 86.367188 82.113281 93.355469 C 75.195312 101.015625 71.332031 112.042969 72.027344 122.136719 C 72.320312 126.351562 73.707031 137.277344 80.257812 147.664062 C 81.328125 149.359375 82.453125 150.9375 83.628906 152.402344 C 80.90625 155.195312 78.402344 157.375 75.863281 159.144531 C 70.691406 162.75 65.261719 164.945312 58.257812 166.257812 C 47.121094 168.355469 38.734375 175.828125 34.003906 187.867188 C 30.273438 197.363281 28.96875 209.714844 30.417969 221.746094 C 30.585938 223.148438 31.777344 224.203125 33.191406 224.203125 L 179.691406 224.203125 C 181.101562 224.203125 182.289062 223.148438 182.457031 221.746094 C 183.914062 209.710938 182.605469 197.363281 178.875 187.867188 C 174.140625 175.828125 165.757812 168.355469 154.621094 166.257812 Z M 202.128906 33.984375 L 198.542969 33.445312 L 198.003906 29.863281 L 204.144531 23.726562 L 204.378906 25.273438 C 204.558594 26.480469 205.511719 27.433594 206.71875 27.617188 L 208.269531 27.847656 Z M 175.867188 61.324219 C 175.867188 63.542969 174.0625 65.339844 171.851562 65.339844 C 169.632812 65.339844 167.835938 63.542969 167.835938 61.324219 C 167.835938 59.121094 169.621094 57.328125 171.824219 57.308594 L 169.828125 59.398438 C 168.769531 60.515625 168.8125 62.28125 169.925781 63.339844 C 170.464844 63.859375 171.15625 64.113281 171.851562 64.113281 C 172.585938 64.113281 173.320312 63.824219 173.867188 63.25 L 175.855469 61.160156 C 175.859375 61.21875 175.867188 61.273438 175.867188 61.324219 Z M 184.539062 61.324219 C 184.539062 58.726562 183.75 56.308594 182.40625 54.296875 L 180.195312 56.617188 C 180.984375 58.011719 181.445312 59.617188 181.445312 61.328125 C 181.445312 66.617188 177.140625 70.921875 171.851562 70.921875 C 166.5625 70.921875 162.257812 66.617188 162.257812 61.328125 C 162.257812 56.039062 166.5625 51.734375 171.851562 51.734375 C 173.398438 51.734375 174.859375 52.117188 176.15625 52.773438 L 178.371094 50.453125 C 176.460938 49.304688 174.230469 48.644531 171.851562 48.644531 C 164.851562 48.644531 159.160156 54.339844 159.160156 61.332031 C 159.160156 68.328125 164.851562 74.023438 171.851562 74.023438 C 178.851562 74.011719 184.539062 68.320312 184.539062 61.324219 Z M 196.859375 61.324219 C 196.859375 75.109375 185.636719 86.332031 171.851562 86.332031 C 158.058594 86.332031 146.84375 75.109375 146.84375 61.324219 C 146.84375 47.539062 158.058594 36.316406 171.851562 36.316406 C 177.527344 36.316406 182.769531 38.222656 186.972656 41.425781 L 182.28125 46.34375 C 179.320312 44.273438 175.726562 43.0625 171.851562 43.0625 C 161.777344 43.0625 153.582031 51.257812 153.582031 61.328125 C 153.582031 71.402344 161.777344 79.597656 171.851562 79.597656 C 181.921875 79.597656 190.117188 71.402344 190.117188 61.328125 C 190.117188 57.140625 188.695312 53.28125 186.316406 50.195312 L 191.003906 45.277344 C 194.652344 49.621094 196.859375 55.21875 196.859375 61.324219 Z M 216.796875 25.035156 C 217.128906 26.035156 216.863281 27.136719 216.117188 27.882812 L 205.078125 38.925781 C 204.550781 39.449219 203.839844 39.742188 203.105469 39.742188 C 202.96875 39.742188 202.832031 39.734375 202.691406 39.710938 L 197.113281 38.875 L 194.867188 41.226562 C 199.570312 46.605469 202.433594 53.636719 202.433594 61.324219 C 202.433594 78.1875 188.714844 91.910156 171.851562 91.910156 C 154.988281 91.910156 141.265625 78.1875 141.265625 61.324219 C 141.265625 44.460938 154.988281 30.738281 171.851562 30.738281 C 179.019531 30.738281 185.613281 33.226562 190.832031 37.371094 L 193.132812 34.960938 L 192.285156 29.300781 C 192.148438 28.421875 192.441406 27.539062 193.070312 26.910156 L 204.109375 15.867188 C 204.851562 15.121094 205.953125 14.863281 206.953125 15.191406 C 207.953125 15.523438 208.683594 16.382812 208.839844 17.421875 L 209.589844 22.40625 L 214.5625 23.15625 C 215.601562 23.308594 216.472656 24.042969 216.796875 25.035156 Z M 216.796875 25.035156 " fill-opacity="1" fill-rule="evenodd"/></g><g clip-path="url(#6a3f27319c)"><path stroke-linecap="butt" transform="matrix(0.749098, -0.0274191, 0.0274191, 0.749098, 60.62557, 220.074624)" fill="none" stroke-linejoin="miter" d="M -0.00102941 2.001828 L 38.576641 2.000722 " stroke="#ffffff" stroke-width="4" stroke-opacity="1" stroke-miterlimit="4"/></g></svg>