<svg xmlns="http://www.w3.org/2000/svg" xmlns:xlink="http://www.w3.org/1999/xlink" width="300" zoomAndPan="magnify" viewBox="0 0 224.87999 225" height="300" preserveAspectRatio="xMidYMid meet" version="1.0"><defs><clipPath id="25e75e22d3"><path d="M 8 48 L 217 48 L 217 224.9375 L 8 224.9375 Z M 8 48 " clip-rule="nonzero"/></clipPath><clipPath id="fd444fad28"><path d="M 123 0.0585938 L 131 0.0585938 L 131 27 L 123 27 Z M 123 0.0585938 " clip-rule="nonzero"/></clipPath><clipPath id="f3a70c7aa8"><path d="M 47 179 L 102 179 L 102 224.9375 L 47 224.9375 Z M 47 179 " clip-rule="nonzero"/></clipPath></defs><g clip-path="url(#25e75e22d3)"><path fill="#ffffff" d="M 215.621094 167.269531 L 186.09375 142.335938 C 187.050781 140.550781 187.65625 138.578125 187.828125 136.496094 C 188.167969 132.484375 186.925781 128.585938 184.339844 125.53125 C 182.445312 123.28125 179.984375 121.667969 177.21875 120.839844 C 181.320312 115.355469 181.273438 107.558594 176.683594 102.105469 C 174.6875 99.734375 172.0625 98.078125 169.117188 97.292969 C 172.398438 91.917969 172.066406 84.8125 167.78125 79.722656 C 165.410156 76.914062 162.144531 75.105469 158.519531 74.566406 C 160.179688 69.722656 159.339844 64.144531 155.804688 59.953125 C 153.226562 56.890625 149.589844 55.019531 145.574219 54.675781 C 141.535156 54.324219 137.65625 55.574219 134.589844 58.15625 L 134.03125 58.625 L 117.109375 50.730469 C 108.25 46.132812 100.496094 49.746094 96.746094 55.359375 C 95.496094 57.222656 94.734375 59.234375 94.332031 61.265625 L 90.644531 58.152344 C 84.292969 52.804688 74.78125 53.621094 69.429688 59.953125 C 65.898438 64.144531 65.054688 69.722656 66.71875 74.566406 C 63.09375 75.105469 59.835938 76.910156 57.457031 79.726562 C 54.875 82.789062 53.636719 86.6875 53.976562 90.699219 C 54.179688 93.078125 54.914062 95.320312 56.117188 97.292969 C 53.265625 98.058594 50.601562 99.675781 48.550781 102.101562 C 43.957031 107.554688 43.914062 115.351562 48.019531 120.835938 C 45.332031 121.652344 42.839844 123.21875 40.898438 125.519531 C 36.8125 130.359375 36.339844 137.046875 39.160156 142.332031 L 9.617188 167.265625 C 8.085938 168.558594 7.890625 170.84375 9.183594 172.375 C 9.902344 173.226562 10.925781 173.664062 11.960938 173.664062 C 12.789062 173.664062 13.617188 173.382812 14.296875 172.8125 L 43.941406 147.796875 L 55.832031 157.820312 C 58.5625 160.125 61.953125 161.355469 65.5 161.355469 C 65.929688 161.355469 66.363281 161.335938 66.800781 161.300781 C 70.808594 160.957031 74.441406 159.085938 77.015625 156.027344 C 79.605469 152.972656 80.84375 149.078125 80.507812 145.0625 C 80.328125 142.9375 79.699219 140.941406 78.714844 139.125 C 81.710938 138.402344 84.523438 136.785156 86.65625 134.257812 C 89.59375 130.773438 90.605469 126.339844 89.925781 122.160156 C 89.929688 122.160156 89.933594 122.160156 89.9375 122.160156 C 94.167969 122.160156 98.335938 120.402344 101.1875 117.035156 C 103.855469 114.351562 105.234375 110.703125 105.0625 106.765625 C 105.054688 106.636719 105.011719 106.511719 105.003906 106.382812 C 105.597656 106.457031 106.1875 106.554688 106.792969 106.554688 C 107.222656 106.554688 107.664062 106.535156 108.097656 106.496094 C 112.113281 106.15625 115.746094 104.28125 118.109375 101.453125 C 120.789062 98.785156 122.175781 95.148438 122.011719 91.207031 C 121.863281 87.621094 120.414062 84.253906 118.054688 81.605469 L 139.261719 63.699219 C 140.847656 62.367188 142.855469 61.710938 144.953125 61.90625 C 147.039062 62.078125 148.921875 63.046875 150.253906 64.628906 C 153.019531 67.914062 152.597656 72.847656 149.316406 75.621094 L 146.574219 77.941406 C 146.570312 77.945312 146.570312 77.945312 146.570312 77.945312 C 145.042969 79.234375 144.851562 81.523438 146.148438 83.054688 C 147.4375 84.582031 149.726562 84.769531 151.257812 83.480469 L 151.273438 83.460938 C 152.847656 82.144531 154.871094 81.519531 156.921875 81.679688 C 159.011719 81.855469 160.902344 82.820312 162.234375 84.402344 C 165.003906 87.691406 164.582031 92.621094 161.296875 95.390625 L 155.480469 100.3125 C 155.480469 100.3125 155.476562 100.316406 155.472656 100.316406 C 153.945312 101.613281 153.753906 103.898438 155.046875 105.425781 C 156.339844 106.957031 158.628906 107.148438 160.15625 105.855469 L 160.160156 105.855469 C 161.742188 104.511719 163.8125 103.894531 165.839844 104.050781 C 167.921875 104.230469 169.800781 105.195312 171.128906 106.777344 C 173.898438 110.0625 173.476562 114.996094 170.199219 117.765625 L 163.140625 123.722656 L 163.136719 123.726562 C 161.605469 125.015625 161.410156 127.304688 162.699219 128.835938 C 163.992188 130.367188 166.277344 130.566406 167.8125 129.273438 L 167.820312 129.265625 C 169.402344 127.933594 171.398438 127.3125 173.496094 127.472656 C 175.578125 127.652344 177.457031 128.613281 178.789062 130.203125 C 180.128906 131.789062 180.765625 133.804688 180.59375 135.882812 C 180.414062 137.964844 179.449219 139.851562 177.871094 141.1875 L 144.902344 169.015625 C 131.449219 180.371094 120.355469 179.167969 103.6875 175.855469 C 102.601562 175.625 101.484375 175.925781 100.636719 176.640625 L 51 218.542969 C 49.46875 219.828125 49.277344 222.117188 50.574219 223.652344 C 51.289062 224.5 52.308594 224.941406 53.34375 224.941406 C 54.171875 224.941406 54.996094 224.660156 55.683594 224.085938 L 103.988281 183.304688 C 110.875 184.632812 117.171875 185.558594 123.257812 185.332031 L 169.585938 224.09375 C 170.269531 224.664062 171.09375 224.941406 171.914062 224.941406 C 172.949219 224.941406 173.980469 224.496094 174.699219 223.640625 C 175.984375 222.105469 175.785156 219.820312 174.246094 218.535156 L 132.839844 183.886719 C 138.332031 182.328125 143.816406 179.425781 149.582031 174.5625 L 181.3125 147.789062 L 210.941406 172.808594 C 211.621094 173.382812 212.453125 173.664062 213.28125 173.664062 C 214.3125 173.664062 215.335938 173.226562 216.054688 172.378906 C 217.34375 170.847656 217.152344 168.558594 215.621094 167.269531 Z M 103.160156 68.710938 C 100.414062 66.390625 100.914062 62.175781 102.78125 59.386719 C 103.703125 58.011719 107.21875 53.777344 113.910156 57.234375 L 127.929688 63.777344 L 112.621094 76.703125 L 103.191406 68.746094 L 103.164062 68.722656 C 103.160156 68.722656 103.164062 68.714844 103.160156 68.710938 Z M 71.480469 151.34375 C 70.148438 152.925781 68.269531 153.890625 66.191406 154.066406 C 64.089844 154.253906 62.089844 153.601562 60.511719 152.269531 L 47.371094 141.195312 C 44.085938 138.410156 43.671875 133.480469 46.445312 130.199219 C 49.195312 126.9375 54.066406 126.503906 57.355469 129.222656 L 70.566406 140.363281 C 72.148438 141.695312 73.113281 143.578125 73.285156 145.664062 C 73.460938 147.75 72.816406 149.761719 71.480469 151.34375 Z M 81.117188 129.578125 C 78.34375 132.859375 73.417969 133.28125 70.132812 130.515625 L 62.121094 123.757812 C 62.109375 123.75 62.105469 123.738281 62.097656 123.726562 L 62.09375 123.722656 L 55.039062 117.769531 C 51.753906 114.992188 51.335938 110.0625 54.097656 106.78125 C 55.4375 105.195312 57.324219 104.230469 59.40625 104.050781 C 61.488281 103.882812 63.507812 104.515625 65.089844 105.855469 L 65.09375 105.859375 C 65.097656 105.867188 65.113281 105.867188 65.121094 105.875 L 80.175781 118.59375 C 83.464844 121.363281 83.878906 126.296875 81.117188 129.578125 Z M 95.855469 112.121094 C 93.078125 115.40625 88.152344 115.824219 84.863281 113.050781 L 69.722656 100.265625 C 69.71875 100.261719 69.710938 100.261719 69.710938 100.257812 L 63.929688 95.382812 C 62.351562 94.050781 61.386719 92.171875 61.207031 90.085938 C 61.03125 88.003906 61.671875 85.980469 63.003906 84.402344 C 64.335938 82.820312 66.21875 81.855469 68.300781 81.679688 C 70.347656 81.488281 72.382812 82.132812 73.960938 83.449219 L 73.992188 83.480469 L 94.917969 101.136719 C 96.644531 102.59375 97.726562 104.8125 97.828125 107.070312 C 97.902344 108.964844 97.277344 110.683594 95.855469 112.121094 Z M 112.789062 96.539062 C 111.457031 98.121094 109.578125 99.085938 107.496094 99.265625 C 105.402344 99.457031 103.398438 98.804688 101.824219 97.476562 C 101.644531 97.328125 101.484375 97.324219 101.335938 97.40625 C 100.792969 96.773438 100.238281 96.136719 99.597656 95.59375 L 78.667969 77.933594 C 78.652344 77.917969 78.640625 77.910156 78.625 77.898438 L 75.914062 75.617188 C 72.632812 72.839844 72.210938 67.910156 74.976562 64.628906 C 77.75 61.351562 82.683594 60.925781 85.964844 63.691406 L 90.925781 67.878906 C 90.925781 67.878906 90.925781 67.882812 90.929688 67.886719 L 98.808594 74.539062 L 101.246094 76.59375 L 101.25 76.59375 L 111.871094 85.566406 C 113.597656 87.019531 114.679688 89.238281 114.777344 91.503906 C 114.851562 93.386719 114.222656 95.089844 112.789062 96.539062 Z M 112.789062 96.539062 " fill-opacity="1" fill-rule="nonzero"/></g><g clip-path="url(#fd444fad28)"><path fill="#ffffff" d="M 127.144531 26.394531 C 129.148438 26.394531 130.769531 24.769531 130.769531 22.765625 L 130.769531 3.6875 C 130.769531 1.679688 129.148438 0.0585938 127.144531 0.0585938 C 125.136719 0.0585938 123.515625 1.679688 123.515625 3.6875 L 123.515625 22.765625 C 123.515625 24.769531 125.136719 26.394531 127.144531 26.394531 Z M 127.144531 26.394531 " fill-opacity="1" fill-rule="nonzero"/></g><path fill="#ffffff" d="M 175.199219 36.820312 C 176.316406 36.820312 177.414062 36.304688 178.128906 35.339844 L 189.414062 19.960938 C 190.597656 18.347656 190.25 16.078125 188.632812 14.890625 C 187.007812 13.703125 184.746094 14.0625 183.5625 15.671875 L 172.28125 31.050781 C 171.097656 32.664062 171.445312 34.933594 173.058594 36.121094 C 173.707031 36.59375 174.457031 36.820312 175.199219 36.820312 Z M 175.199219 36.820312 " fill-opacity="1" fill-rule="nonzero"/><path fill="#ffffff" d="M 76.160156 35.339844 C 76.867188 36.308594 77.972656 36.820312 79.089844 36.820312 C 79.832031 36.820312 80.582031 36.59375 81.234375 36.117188 C 82.847656 34.933594 83.195312 32.664062 82.007812 31.050781 L 70.71875 15.671875 C 69.535156 14.0625 67.269531 13.707031 65.652344 14.894531 C 64.035156 16.078125 63.6875 18.347656 64.875 19.960938 Z M 76.160156 35.339844 " fill-opacity="1" fill-rule="nonzero"/><g clip-path="url(#f3a70c7aa8)"><path stroke-linecap="butt" transform="matrix(0.604781, -0.442876, 0.442876, 0.604781, 63.453363, 209.386133)" fill="none" stroke-linejoin="miter" d="M 0.00231645 1.998479 L 32.891791 1.997762 " stroke="#ffffff" stroke-width="4" stroke-opacity="1" stroke-miterlimit="4"/></g></svg>