<svg xmlns="http://www.w3.org/2000/svg" xmlns:xlink="http://www.w3.org/1999/xlink" width="300" zoomAndPan="magnify" viewBox="0 0 224.87999 225" height="300" preserveAspectRatio="xMidYMid meet" version="1.0"><defs><clipPath id="b27c9ad762"><path d="M 0 0.0585938 L 224.761719 0.0585938 L 224.761719 224.9375 L 0 224.9375 Z M 0 0.0585938 " clip-rule="nonzero"/></clipPath></defs><g clip-path="url(#b27c9ad762)"><path fill="#ffffff" d="M 97.449219 0.0585938 C 43.6875 0.0585938 0 43.746094 0 97.507812 C 0 151.269531 43.6875 194.957031 97.449219 194.957031 L 104.945312 194.957031 L 104.945312 202.453125 C 104.945312 214.808594 115.074219 224.941406 127.433594 224.941406 L 202.390625 224.941406 C 214.75 224.941406 224.878906 214.808594 224.878906 202.453125 L 224.878906 127.492188 C 224.878906 115.136719 214.75 105.003906 202.390625 105.003906 L 127.433594 105.003906 C 115.074219 105.003906 104.945312 115.136719 104.945312 127.492188 L 104.945312 179.964844 L 97.449219 179.964844 C 51.828125 179.964844 14.992188 143.128906 14.992188 97.507812 C 14.992188 51.886719 51.828125 15.050781 97.449219 15.050781 C 126.027344 15.050781 150.972656 29.632812 165.789062 51.652344 L 142.425781 75.019531 L 194.894531 75.019531 L 194.894531 22.546875 L 176.566406 40.878906 C 158.878906 16.222656 130.066406 0.0585938 97.449219 0.0585938 Z M 127.433594 119.996094 L 202.390625 119.996094 C 206.609375 119.996094 209.886719 123.277344 209.886719 127.492188 L 209.886719 202.453125 C 209.886719 206.667969 206.609375 209.949219 202.390625 209.949219 L 127.433594 209.949219 C 123.214844 209.949219 119.9375 206.667969 119.9375 202.453125 L 119.9375 127.492188 C 119.9375 123.277344 123.214844 119.996094 127.433594 119.996094 Z M 186.929688 141.78125 L 159.289062 169.363281 L 142.132812 152.148438 L 131.53125 162.804688 L 159.289062 190.5625 L 197.472656 152.324219 Z M 186.929688 141.78125 " fill-opacity="1" fill-rule="nonzero"/></g><path stroke-linecap="butt" transform="matrix(0.596906, -0.453435, 0.453435, 0.596906, 106.907218, 127.278851)" fill="none" stroke-linejoin="miter" d="M -0.00168075 1.998711 L 48.416711 2.00115 " stroke="#ffffff" stroke-width="4" stroke-opacity="1" stroke-miterlimit="4"/></svg>